<svg xmlns="http://www.w3.org/2000/svg" width="335" height="356" fill="none" viewBox="0 0 335 356"><mask id="mask0" width="305" height="306" x="15" y="50" mask-type="alpha" maskUnits="userSpaceOnUse"><path fill="#fff" d="M167.486 355.273C251.576 355.273 319.745 287.104 319.745 203.013C319.745 118.922 251.576 50.7534 167.486 50.7534C83.395 50.7534 15.226 118.922 15.226 203.013C15.226 287.104 83.395 355.273 167.486 355.273Z"/></mask><g mask="url(#mask0)"><path fill="#FCC6D0" d="M167.486 355.273C251.576 355.273 319.745 287.104 319.745 203.013C319.745 118.922 251.576 50.7534 167.486 50.7534C83.395 50.7534 15.226 118.922 15.226 203.013C15.226 287.104 83.395 355.273 167.486 355.273Z"/><path fill="#FCC6D0" d="M319.745 50.7534H15.226V355.273H319.745V50.7534Z"/></g><mask id="mask1" width="335" height="356" x="0" y="0" mask-type="alpha" maskUnits="userSpaceOnUse"><path fill="#fff" d="M15.226 203.013C15.226 287.104 83.395 355.273 167.486 355.273C251.576 355.273 319.745 287.104 319.745 203.013H334.971V0H0V203.013H15.226Z"/></mask><g mask="url(#mask1)"><mask id="mask2" width="255" height="311" x="40" y="45" mask-type="alpha" maskUnits="userSpaceOnUse"><path fill="#fff" d="M197.938 229.165V252.497H203.013C253.467 252.497 294.369 293.399 294.369 343.853V355.273H40.6026V343.853C40.6026 293.399 81.504 252.497 131.958 252.497H137.034V229.165C115.162 218.775 99.4411 197.54 96.8183 172.41C89.4276 171.365 83.7429 165.014 83.7429 157.335V139.571C83.7429 132.027 89.23 125.764 96.4312 124.556V116.732C96.4312 77.4899 128.243 45.6777 167.486 45.6777C206.728 45.6777 238.54 77.4899 238.54 116.732V124.556C245.741 125.764 251.229 132.027 251.229 139.571V157.335C251.229 165.014 245.544 171.365 238.153 172.41C235.53 197.54 219.809 218.775 197.938 229.165Z"/></mask><g mask="url(#mask2)"><path fill="#D0C6AC" d="M197.938 229.165V252.497H203.013C253.467 252.497 294.369 293.399 294.369 343.853V355.273H40.6026V343.853C40.6026 293.399 81.504 252.497 131.958 252.497H137.034V229.165C115.162 218.775 99.4411 197.54 96.8183 172.41C89.4276 171.365 83.7429 165.014 83.7429 157.335V139.571C83.7429 132.027 89.23 125.764 96.4312 124.556V116.732C96.4312 77.4899 128.243 45.6777 167.486 45.6777C206.728 45.6777 238.54 77.4899 238.54 116.732V124.556C245.741 125.764 251.229 132.027 251.229 139.571V157.335C251.229 165.014 245.544 171.365 238.153 172.41C235.53 197.54 219.809 218.775 197.938 229.165Z"/><path fill="#FFDBB4" d="M334.971 45.6777H0V355.273H334.971V45.6777Z"/><path fill="#F9C6A5" fill-rule="evenodd" d="M238.54 145.916V175.099C238.54 214.341 206.728 246.153 167.486 246.153C128.243 246.153 96.4312 214.341 96.4312 175.099V145.916V164.948C96.4312 204.19 128.243 236.003 167.486 236.003C206.728 236.003 238.54 204.19 238.54 164.948V145.916Z" clip-rule="evenodd"/></g><mask id="mask3" width="255" height="104" x="40" y="252" mask-type="alpha" maskUnits="userSpaceOnUse"><path fill="#fff" fill-rule="evenodd" d="M133.471 252.563H131.958C81.504 252.563 40.6026 293.464 40.6026 343.919V355.273H294.369V343.919C294.369 293.464 253.467 252.563 203.013 252.563H201.5C201.661 253.811 201.744 255.081 201.744 256.369C201.744 273.888 186.406 288.09 167.486 288.09C148.565 288.09 133.227 273.888 133.227 256.369C133.227 255.081 133.31 253.811 133.471 252.563Z" clip-rule="evenodd"/></mask><g mask="url(#mask3)"><path fill="#E6E6E6" fill-rule="evenodd" d="M133.471 252.563H131.958C81.504 252.563 40.6026 293.464 40.6026 343.919V355.273H294.369V343.919C294.369 293.464 253.467 252.563 203.013 252.563H201.5C201.661 253.811 201.744 255.081 201.744 256.369C201.744 273.888 186.406 288.09 167.486 288.09C148.565 288.09 133.227 273.888 133.227 256.369C133.227 255.081 133.31 253.811 133.471 252.563Z" clip-rule="evenodd"/><path fill="#FCC6D0" d="M334.971 215.701H0V355.273H334.971V215.701Z"/><path fill="#F2F2F2" fill-rule="evenodd" d="M197.938 243.97C205.781 249.751 210.626 257.707 210.626 266.49C210.626 275.633 205.376 283.879 196.959 289.709L189.791 284.061L183.981 284.482L185.249 280.484L185.151 280.406C192.891 276.419 197.938 269.881 197.938 262.492V243.97ZM137.034 243.072C128.447 248.912 123.077 257.242 123.077 266.49C123.077 275.877 128.611 284.32 137.425 290.171L145.181 284.061L150.991 284.482L149.722 280.484L149.821 280.406C142.081 276.419 137.034 269.881 137.034 262.492V243.072Z" clip-rule="evenodd"/></g><path fill="#F1AC94" d="M149.722 190.325C149.722 197.141 157.536 201.744 167.486 201.744C177.436 201.744 185.249 197.141 185.249 190.325C185.249 188.923 184.044 187.787 182.712 187.787C181.071 187.787 180.339 188.936 180.174 190.325C178.598 194.052 174.697 196.309 167.486 196.669C160.275 196.309 156.374 194.052 154.797 190.325C154.632 188.936 153.9 187.787 152.26 187.787C150.927 187.787 149.722 188.923 149.722 190.325Z"/><path fill="#F5B89C" fill-rule="evenodd" d="M152.26 164.948C152.26 170.554 159.077 175.099 167.486 175.099C175.895 175.099 182.712 170.554 182.712 164.948" clip-rule="evenodd"/><path fill="#772E3C" fill-rule="evenodd" d="M116.936 142.677C119.279 137.857 124.554 134.496 130.687 134.496C136.797 134.496 142.057 137.833 144.412 142.626C145.112 144.05 144.117 145.215 143.112 144.351C140.002 141.678 135.586 140.008 130.687 140.008C125.941 140.008 121.648 141.575 118.556 144.103C117.426 145.028 116.25 144.087 116.936 142.677Z" clip-rule="evenodd"/><path fill="#772E3C" fill-rule="evenodd" d="M190.528 142.676C192.871 137.856 198.146 134.496 204.279 134.496C210.39 134.496 215.649 137.833 218.005 142.625C218.704 144.049 217.709 145.214 216.704 144.351C213.594 141.677 209.178 140.007 204.279 140.007C199.533 140.007 195.24 141.574 192.149 144.103C191.018 145.028 189.843 144.086 190.528 142.676Z" clip-rule="evenodd"/><path fill="#772E3C" d="M116.263 125.815C121.231 118.826 134.849 114.906 146.579 117.787C147.94 118.121 149.315 117.289 149.649 115.928C149.983 114.567 149.151 113.192 147.79 112.858C134.167 109.513 118.397 114.051 112.126 122.875C111.314 124.018 111.582 125.602 112.725 126.414C113.867 127.226 115.451 126.958 116.263 125.815Z"/><path fill="#772E3C" d="M218.708 125.815C213.741 118.826 200.123 114.906 188.393 117.787C187.031 118.121 185.657 117.289 185.323 115.928C184.989 114.567 185.821 113.192 187.182 112.858C200.805 109.513 216.574 114.051 222.845 122.875C223.657 124.018 223.389 125.602 222.247 126.414C221.105 127.226 219.52 126.958 218.708 125.815Z"/><mask id="mask4" width="335" height="356" x="0" y="0" mask-type="alpha" maskUnits="userSpaceOnUse"><path fill="#fff" d="M334.971 0H0V355.273H334.971V0Z"/></mask><g mask="url(#mask4)"><mask id="mask5" width="296" height="340" x="19" y="16" mask-type="alpha" maskUnits="userSpaceOnUse"><path fill="#fff" fill-rule="evenodd" d="M301.201 248.445C294.383 255.693 287.579 260.273 287.811 267.723C288.213 282.808 343.142 327.423 294.369 355.273H39.3405C-9.43219 327.423 45.4968 282.808 45.8988 267.723C46.1308 260.273 39.3262 255.693 32.5081 248.445C25.6899 241.198 18.8582 231.283 19.0359 213.164C20.2309 176.332 58.8378 179.652 58.6234 154.797C58.8378 130.689 44.173 120.743 58.6234 74.8611C73.3887 28.5987 111.551 17.4696 166.22 16.5152V16.4949C166.432 16.498 166.643 16.5012 166.855 16.5046C167.066 16.5012 167.277 16.498 167.489 16.4949V16.5152C222.158 17.4696 260.321 28.5987 275.086 74.8611C289.536 120.743 274.871 130.689 275.086 154.797C274.871 179.652 313.478 176.332 314.673 213.164C314.851 231.283 308.019 241.198 301.201 248.445ZM251.081 137.446C223.776 122.743 200.336 101.69 185.053 77.7824C162.111 110.292 116.136 116.142 84.0272 136.628C83.8406 137.58 83.7429 138.564 83.7429 139.571V156.066C83.7429 163.703 89.3649 170.026 96.6958 171.124C98.9077 196.815 114.79 218.598 137.034 229.165V252.497H131.958C81.504 252.497 40.6026 293.399 40.6026 343.853V355.273H294.369V343.853C294.369 293.399 253.467 252.497 203.013 252.497H197.938V229.165C220.181 218.598 236.064 196.815 238.276 171.124C245.607 170.026 251.229 163.703 251.229 156.066V139.571C251.229 138.85 251.178 138.141 251.081 137.446Z" clip-rule="evenodd"/></mask><g mask="url(#mask5)"><path fill="#314756" fill-rule="evenodd" d="M301.201 248.445C294.383 255.693 287.579 260.273 287.811 267.723C288.213 282.808 343.142 327.423 294.369 355.273H39.3405C-9.43219 327.423 45.4968 282.808 45.8988 267.723C46.1308 260.273 39.3262 255.693 32.5081 248.445C25.6899 241.198 18.8582 231.283 19.0359 213.164C20.2309 176.332 58.8378 179.652 58.6234 154.797C58.8378 130.689 44.173 120.743 58.6234 74.8611C73.3887 28.5987 111.551 17.4696 166.22 16.5152V16.4949C166.432 16.498 166.643 16.5012 166.855 16.5046C167.066 16.5012 167.277 16.498 167.489 16.4949V16.5152C222.158 17.4696 260.321 28.5987 275.086 74.8611C289.536 120.743 274.871 130.689 275.086 154.797C274.871 179.652 313.478 176.332 314.673 213.164C314.851 231.283 308.019 241.198 301.201 248.445ZM251.081 137.446C223.776 122.743 200.336 101.69 185.053 77.7824C162.111 110.292 116.136 116.142 84.0272 136.628C83.8406 137.58 83.7429 138.564 83.7429 139.571V156.066C83.7429 163.703 89.3649 170.026 96.6958 171.124C98.9077 196.815 114.79 218.598 137.034 229.165V252.497H131.958C81.504 252.497 40.6026 293.399 40.6026 343.853V355.273H294.369V343.853C294.369 293.399 253.467 252.497 203.013 252.497H197.938V229.165C220.181 218.598 236.064 196.815 238.276 171.124C245.607 170.026 251.229 163.703 251.229 156.066V139.571C251.229 138.85 251.178 138.141 251.081 137.446Z" clip-rule="evenodd"/><path fill="#B5000B" d="M354.004 16.4949H19.0325V371.768H354.004V16.4949Z"/></g><mask id="mask6" width="296" height="340" x="19" y="16" mask-type="alpha" maskUnits="userSpaceOnUse"><path fill="#fff" fill-rule="evenodd" d="M301.201 248.445C294.383 255.693 287.579 260.273 287.811 267.723C288.213 282.808 343.142 327.423 294.369 355.273H39.3405C-9.43219 327.423 45.4968 282.808 45.8988 267.723C46.1308 260.273 39.3262 255.693 32.5081 248.445C25.6899 241.198 18.8582 231.283 19.0359 213.164C20.2309 176.332 58.8378 179.652 58.6234 154.797C58.8378 130.689 44.173 120.743 58.6234 74.8611C73.3887 28.5987 111.551 17.4696 166.22 16.5152V16.4949C166.432 16.498 166.643 16.5012 166.855 16.5046C167.066 16.5012 167.277 16.498 167.489 16.4949V16.5152C222.158 17.4696 260.321 28.5987 275.086 74.8611C289.536 120.743 274.871 130.689 275.086 154.797C274.871 179.652 313.478 176.332 314.673 213.164C314.851 231.283 308.019 241.198 301.201 248.445ZM137.034 252.497H131.958C81.504 252.497 40.6026 293.399 40.6026 343.853V355.273H294.369V343.853C294.369 293.399 253.467 252.497 203.013 252.497H197.938V194.131H137.034V252.497Z" clip-rule="evenodd"/></mask><g mask="url(#mask6)"><path fill="#BF0022" fill-opacity=".16" fill-rule="evenodd" d="M57.2229 162.482C54.2109 166.322 50.1564 171.963 49.9436 171.538C52.3196 168.514 53.7665 164.963 53.7235 160.426C53.9477 137.459 38.619 127.984 53.7235 84.2738C54.572 81.851 55.9644 79.5613 57.8408 77.4048C44.7179 121.121 58.8338 131.141 58.6234 154.797C58.6485 157.709 58.1408 160.234 57.2229 162.482ZM275.869 77.4048C277.745 79.5613 279.137 81.851 279.986 84.2738C292.874 121.57 283.605 133.941 280.746 151.037C280.367 152.058 280.659 153.262 280.26 154.294C241.341 141.025 206.299 116.174 185.877 87.0568C156.968 124.391 93.0744 124.819 61.7588 157.254C62.2498 156.563 62.7159 155.92 63.1352 155.364C91.729 117.402 156.38 118.412 185.053 77.7822C204.591 108.346 238.115 134.432 275.348 148.36C275.73 147.277 275.45 146.014 275.814 144.942C278.488 127.391 287.029 114.584 275.869 77.4048Z" clip-rule="evenodd"/></g><path fill="#fff" fill-opacity=".1" fill-rule="evenodd" d="M63.1351 155.364C91.7289 117.402 156.379 118.413 185.053 77.7824C204.591 108.346 238.114 134.432 275.348 148.36C275.73 147.277 275.45 146.014 275.813 144.942C278.548 126.997 287.416 114.011 275.086 74.8611C260.321 28.5987 222.158 17.4696 167.489 16.5152C166.643 16.5012 166.432 16.498 166.22 16.4949C111.551 17.4696 73.3886 28.5987 58.6233 74.8611C44.173 120.743 58.8378 130.689 58.6233 154.797C58.6644 159.56 57.2803 163.288 55.0071 166.462C55.2399 166.971 60.2773 159.158 63.1351 155.364Z" clip-rule="evenodd"/></g></g></svg>