<svg id="Layer_1" data-name="Layer 1" xmlns="http://www.w3.org/2000/svg" viewBox="0 0 1441.33 85.5"><title>scallopEdge</title><path d="M1440,.06H0c.26,47,36.64,85.5,81.49,85.5,25.67,0,48.56-12.47,63.5-31.93,14.94,19.46,37.83,31.93,63.5,31.93,25.38,0,48.05-12.18,63-31.27,14.95,19.09,37.62,31.27,63,31.27,26.84,0,50.65-13.62,65.5-34.63,14.85,21,38.66,34.63,65.5,34.63,25.9,0,49-12.7,63.89-32.46,14.75,19.76,37.53,32.46,63.11,32.46s48.31-12.66,63-32.38C670.39,72.9,693.29,85.56,719,85.56s48.61-12.66,63.45-32.38c14.74,19.72,37.5,32.38,63,32.38,27.38,0,51.55-14.53,66.09-36.71C926.31,71,950.78,85.56,978.5,85.56c25.38,0,48-12.18,63-31.27,15,19.09,37.62,31.27,63,31.27s48-12.18,63-31.27c15,19.09,37.62,31.27,63,31.27,26,0,49.08-12.76,64-32.6,14.92,19.84,38,32.6,64,32.6,44.85,0,81.23-38,81.49-85h0V.06" transform="translate(1.33 -0.06)" fill="#d40136"/><line x1="1441.33" y1="85.44" y2="85.44" fill="none"/></svg>