<svg xmlns="http://www.w3.org/2000/svg" width="288" height="307" fill="none" viewBox="0 0 288 307"><g clip-path="url(#clip0)"><mask id="mask0" width="262" height="263" x="13" y="44" mask-type="alpha" maskUnits="userSpaceOnUse"><path fill="#fff" d="M144 306.128C216.299 306.128 274.909 247.556 274.909 175.304C274.909 103.052 216.299 44.48 144 44.48C71.7008 44.48 13.0908 103.052 13.0908 175.304C13.0908 247.556 71.7008 306.128 144 306.128Z"/></mask><g mask="url(#mask0)"><path fill="#FCC6D0" d="M144 306.128C216.299 306.128 274.909 247.556 274.909 175.304C274.909 103.052 216.299 44.48 144 44.48C71.7008 44.48 13.0908 103.052 13.0908 175.304C13.0908 247.556 71.7008 306.128 144 306.128Z"/><path fill="#FCC6D0" d="M274.909 44.48H13.0908V306.128H274.909V44.48Z"/></g><mask id="mask1" width="288" height="307" x="0" y="0" mask-type="alpha" maskUnits="userSpaceOnUse"><path fill="#fff" d="M13.0909 175.304C13.0909 247.556 71.7009 306.128 144 306.128C216.299 306.128 274.909 247.556 274.909 175.304H288V0.87207H0V175.304H13.0909Z"/></mask><g mask="url(#mask1)"><mask id="mask2" width="220" height="267" x="34" y="40" mask-type="alpha" maskUnits="userSpaceOnUse"><path fill="#fff" d="M170.182 197.774V217.822H174.546C217.925 217.822 253.091 252.965 253.091 296.316V306.128H34.9092V296.316C34.9092 252.965 70.0752 217.822 113.455 217.822H117.818V197.774C99.0139 188.847 85.4971 170.602 83.2421 149.01C76.8877 148.112 72.0001 142.655 72.0001 136.057V120.794C72.0001 114.312 76.7178 108.93 82.9092 107.892V101.17C82.9092 67.4527 110.261 40.1191 144 40.1191C177.74 40.1191 205.091 67.4527 205.091 101.17V107.892C211.282 108.93 216 114.312 216 120.794V136.057C216 142.655 211.112 148.112 204.758 149.01C202.503 170.602 188.986 188.847 170.182 197.774Z"/></mask><g mask="url(#mask2)"><path fill="#D0C6AC" d="M170.182 197.774V217.822H174.546C217.925 217.822 253.091 252.965 253.091 296.316V306.128H34.9092V296.316C34.9092 252.965 70.0752 217.822 113.455 217.822H117.818V197.774C99.0139 188.847 85.4971 170.602 83.2421 149.01C76.8877 148.112 72.0001 142.655 72.0001 136.057V120.794C72.0001 114.312 76.7178 108.93 82.9092 107.892V101.17C82.9092 67.4527 110.261 40.1191 144 40.1191C177.74 40.1191 205.091 67.4527 205.091 101.17V107.892C211.282 108.93 216 114.312 216 120.794V136.057C216 142.655 211.112 148.112 204.758 149.01C202.503 170.602 188.986 188.847 170.182 197.774Z"/><path fill="#FFDBB4" d="M288 40.1191H0V306.128H288V40.1191Z"/><path fill="#BF0022" fill-opacity=".1" fill-rule="evenodd" d="M205.091 126.245V151.319C205.091 185.037 177.74 212.371 144 212.371C110.261 212.371 82.9092 185.037 82.9092 151.319V126.245V142.598C82.9092 176.315 110.261 203.649 144 203.649C177.74 203.649 205.091 176.315 205.091 142.598V126.245Z" clip-rule="evenodd"/></g><mask id="mask3" width="220" height="90" x="34" y="217" mask-type="alpha" maskUnits="userSpaceOnUse"><path fill="#fff" fill-rule="evenodd" d="M114.755 217.878H113.455C70.0752 217.878 34.9092 253.021 34.9092 296.372V306.128H253.091V296.372C253.091 253.021 217.925 217.878 174.546 217.878H173.245C173.383 218.95 173.455 220.042 173.455 221.149C173.455 236.201 160.267 248.404 144 248.404C127.733 248.404 114.546 236.201 114.546 221.149C114.546 220.042 114.617 218.95 114.755 217.878Z" clip-rule="evenodd"/></mask><g mask="url(#mask3)"><path fill="#E6E6E6" fill-rule="evenodd" d="M114.755 217.878H113.455C70.0752 217.878 34.9092 253.021 34.9092 296.372V306.128H253.091V296.372C253.091 253.021 217.925 217.878 174.546 217.878H173.245C173.383 218.95 173.455 220.042 173.455 221.149C173.455 236.201 160.267 248.404 144 248.404C127.733 248.404 114.546 236.201 114.546 221.149C114.546 220.042 114.617 218.95 114.755 217.878Z" clip-rule="evenodd"/><path fill="#FCC6D0" d="M288 186.206H0V306.128H288V186.206Z"/><path fill="#F2F2F2" fill-rule="evenodd" d="M170.182 210.495C176.926 215.462 181.091 222.298 181.091 229.844C181.091 237.7 176.578 244.786 169.341 249.794L163.178 244.942L158.182 245.303L159.273 241.868L159.188 241.801C165.843 238.375 170.182 232.758 170.182 226.409V210.495ZM117.818 209.723C110.436 214.741 105.818 221.899 105.818 229.844C105.818 237.91 110.576 245.164 118.155 250.191L124.823 244.942L129.818 245.303L128.727 241.868L128.812 241.801C122.157 238.375 117.818 232.758 117.818 226.409V209.723Z" clip-rule="evenodd"/></g><g opacity=".6"><path fill="#BF0022" fill-opacity=".6" fill-rule="evenodd" d="M133.299 164.518C133.11 158.946 128.501 154.369 122.502 153.5C126.174 155.635 128.706 159.491 128.706 164.05C128.706 170.228 122.735 175.571 115.829 175.571C115.765 175.571 115.7 175.571 115.636 175.57H115.636C117.117 176.101 118.734 176.394 120.428 176.394C126.233 176.394 131.141 172.956 132.749 168.232C135.448 170.583 139.487 172.076 144 172.076C148.513 172.076 152.552 170.583 155.251 168.232C156.858 172.956 161.766 176.394 167.572 176.394C169.265 176.394 170.882 176.101 172.363 175.57C172.299 175.571 172.235 175.571 172.171 175.571C165.265 175.571 159.294 170.228 159.294 164.05C159.294 159.491 161.825 155.635 165.498 153.5C159.499 154.369 154.889 158.946 154.701 164.518C151.904 166.41 148.14 167.569 144 167.569C139.86 167.569 136.096 166.41 133.299 164.518Z" clip-rule="evenodd" opacity=".6"/></g><path fill="#FF002E" fill-opacity=".29" d="M103.636 173.123C109.059 173.123 113.454 168.73 113.454 163.312C113.454 157.893 109.059 153.5 103.636 153.5C98.2139 153.5 93.8181 157.893 93.8181 163.312C93.8181 168.73 98.2139 173.123 103.636 173.123Z"/><path fill="#FF002E" fill-opacity=".29" d="M184.364 173.123C189.786 173.123 194.182 168.73 194.182 163.312C194.182 157.893 189.786 153.5 184.364 153.5C178.941 153.5 174.545 157.893 174.545 163.312C174.545 168.73 178.941 173.123 184.364 173.123Z"/><path fill="#BF0022" fill-opacity=".16" fill-rule="evenodd" d="M130.909 142.598C130.909 147.415 136.77 151.32 144 151.32C151.23 151.32 157.091 147.415 157.091 142.598" clip-rule="evenodd"/><path fill="#53001C" fill-opacity=".79" d="M115.636 129.515C119.251 129.515 122.182 126.587 122.182 122.974C122.182 119.362 119.251 116.433 115.636 116.433C112.021 116.433 109.091 119.362 109.091 122.974C109.091 126.587 112.021 129.515 115.636 129.515Z"/><path fill="#53001C" fill-opacity=".79" fill-rule="evenodd" d="M159.938 126.196C161.658 121.924 165.981 118.727 171.241 118.36C176.482 117.994 181.193 120.538 183.501 124.505C184.186 125.684 183.402 126.742 182.489 126.062C179.661 123.957 175.773 122.79 171.571 123.084C167.501 123.368 163.913 124.969 161.413 127.321C160.499 128.182 159.434 127.445 159.938 126.196Z" clip-rule="evenodd"/><path fill="#53001C" fill-opacity=".79" d="M99.9602 108.975C104.231 102.969 115.939 99.6013 126.025 102.076C127.195 102.364 128.377 101.648 128.664 100.479C128.952 99.3095 128.236 98.1286 127.066 97.8415C115.353 94.967 101.795 98.8667 96.4033 106.448C95.7053 107.43 95.9356 108.791 96.9178 109.489C97.9001 110.186 99.2622 109.956 99.9602 108.975Z"/><path fill="#53001C" fill-opacity=".79" d="M188.04 108.975C183.769 102.969 172.061 99.6013 161.975 102.076C160.805 102.364 159.623 101.648 159.336 100.479C159.049 99.3095 159.764 98.1286 160.935 97.8415C172.647 94.967 186.205 98.8667 191.597 106.448C192.295 107.43 192.065 108.791 191.082 109.489C190.1 110.186 188.738 109.956 188.04 108.975Z"/><mask id="mask4" width="288" height="307" x="0" y="0" mask-type="alpha" maskUnits="userSpaceOnUse"><path fill="#fff" d="M288 0.87207H0V306.128H288V0.87207Z"/></mask><g mask="url(#mask4)"><mask id="mask5" width="255" height="292" x="16" y="15" mask-type="alpha" maskUnits="userSpaceOnUse"><path fill="#fff" fill-rule="evenodd" d="M258.965 214.34C253.103 220.567 247.253 224.502 247.452 230.904C247.798 243.865 295.024 282.199 253.091 306.128H33.8239C-8.10968 282.199 39.1169 243.865 39.4625 230.904C39.662 224.502 33.8116 220.567 27.9495 214.34C22.0874 208.113 16.2137 199.594 16.3664 184.026C17.3939 152.379 50.5872 155.231 50.4028 133.876C50.5872 113.162 37.9787 104.616 50.4028 65.1938C63.0976 25.4444 95.9089 15.8821 142.912 15.0621V15.0447C143.094 15.0473 143.276 15.0501 143.457 15.053C143.639 15.0501 143.821 15.0473 144.003 15.0447V15.0621C191.006 15.8821 223.817 25.4444 236.512 65.1938C248.936 104.616 236.327 113.162 236.512 133.876C236.327 155.231 269.521 152.379 270.548 184.026C270.701 199.594 264.827 208.113 258.965 214.34ZM215.873 118.968C192.397 106.335 172.244 88.2453 159.104 67.7039C139.379 95.6362 99.8507 100.663 72.2444 118.265C72.084 119.083 71.9999 119.929 71.9999 120.794V134.967C71.9999 141.528 76.8336 146.961 83.1365 147.904C85.0382 169.978 98.6936 188.695 117.818 197.774V217.822H113.454C70.075 217.822 34.909 252.965 34.909 296.316V306.128H253.091V296.316C253.091 252.965 217.925 217.822 174.545 217.822H170.182V197.774C189.306 188.695 202.962 169.978 204.863 147.904C211.166 146.961 216 141.528 216 134.967V120.794C216 120.174 215.957 119.565 215.873 118.968Z" clip-rule="evenodd"/></mask><g mask="url(#mask5)"><path fill="#314756" fill-rule="evenodd" d="M258.965 214.34C253.103 220.567 247.253 224.502 247.452 230.904C247.798 243.865 295.024 282.199 253.091 306.128H33.8239C-8.10968 282.199 39.1169 243.865 39.4625 230.904C39.662 224.502 33.8116 220.567 27.9495 214.34C22.0874 208.113 16.2137 199.594 16.3664 184.026C17.3939 152.379 50.5872 155.231 50.4028 133.876C50.5872 113.162 37.9787 104.616 50.4028 65.1938C63.0976 25.4444 95.9089 15.8821 142.912 15.0621V15.0447C143.094 15.0473 143.276 15.0501 143.457 15.053C143.639 15.0501 143.821 15.0473 144.003 15.0447V15.0621C191.006 15.8821 223.817 25.4444 236.512 65.1938C248.936 104.616 236.327 113.162 236.512 133.876C236.327 155.231 269.521 152.379 270.548 184.026C270.701 199.594 264.827 208.113 258.965 214.34ZM215.873 118.968C192.397 106.335 172.244 88.2453 159.104 67.7039C139.379 95.6362 99.8507 100.663 72.2444 118.265C72.084 119.083 71.9999 119.929 71.9999 120.794V134.967C71.9999 141.528 76.8336 146.961 83.1365 147.904C85.0382 169.978 98.6936 188.695 117.818 197.774V217.822H113.454C70.075 217.822 34.909 252.965 34.909 296.316V306.128H253.091V296.316C253.091 252.965 217.925 217.822 174.545 217.822H170.182V197.774C189.306 188.695 202.962 169.978 204.863 147.904C211.166 146.961 216 141.528 216 134.967V120.794C216 120.174 215.957 119.565 215.873 118.968Z" clip-rule="evenodd"/><path fill="#B5000B" d="M304.364 15.0447H16.3635V320.3H304.364V15.0447Z"/></g><mask id="mask6" width="255" height="292" x="16" y="15" mask-type="alpha" maskUnits="userSpaceOnUse"><path fill="#fff" fill-rule="evenodd" d="M258.965 214.34C253.103 220.567 247.253 224.502 247.452 230.904C247.798 243.865 295.024 282.199 253.091 306.128H33.8239C-8.10968 282.199 39.1169 243.865 39.4625 230.904C39.662 224.502 33.8116 220.567 27.9495 214.34C22.0874 208.113 16.2137 199.594 16.3664 184.026C17.3939 152.379 50.5872 155.231 50.4028 133.876C50.5872 113.162 37.9787 104.616 50.4028 65.1938C63.0976 25.4444 95.9089 15.8821 142.912 15.0621V15.0447C143.094 15.0473 143.276 15.0501 143.457 15.053C143.639 15.0501 143.821 15.0473 144.003 15.0447V15.0621C191.006 15.8821 223.817 25.4444 236.512 65.1938C248.936 104.616 236.327 113.162 236.512 133.876C236.327 155.231 269.521 152.379 270.548 184.026C270.701 199.594 264.827 208.113 258.965 214.34ZM117.818 217.822H113.454C70.075 217.822 34.909 252.965 34.909 296.316V306.128H253.091V296.316C253.091 252.965 217.925 217.822 174.545 217.822H170.182V167.673H117.818V217.822Z" clip-rule="evenodd"/></mask><g mask="url(#mask6)"><path fill="#BF0022" fill-opacity=".16" fill-rule="evenodd" d="M49.1985 140.48C46.6089 143.779 43.123 148.625 42.94 148.26C44.9829 145.662 46.2268 142.611 46.1899 138.713C46.3826 118.979 33.2034 110.838 46.1899 73.2816C46.9194 71.1999 48.1165 69.2325 49.7298 67.3796C38.447 104.941 50.5836 113.55 50.4027 133.876C50.4243 136.378 49.9878 138.548 49.1985 140.48ZM237.185 67.3796C238.798 69.2325 239.995 71.1999 240.725 73.2816C251.806 105.327 243.836 115.957 241.378 130.646C241.052 131.523 241.304 132.557 240.96 133.444C207.498 122.043 177.371 100.69 159.812 75.6728C134.957 107.751 80.0228 108.119 53.0984 135.987C53.5205 135.394 53.9213 134.841 54.2818 134.363C78.866 101.745 134.451 102.614 159.104 67.7039C175.902 93.9647 204.725 116.378 236.737 128.346C237.066 127.415 236.825 126.329 237.137 125.409C239.437 110.328 246.78 99.3247 237.185 67.3796Z" clip-rule="evenodd"/></g><path fill="#fff" fill-opacity=".1" fill-rule="evenodd" d="M54.2818 134.363C78.866 101.745 134.451 102.614 159.104 67.7039C175.902 93.9646 204.725 116.378 236.737 128.346C237.066 127.415 236.825 126.329 237.137 125.408C239.488 109.989 247.113 98.8321 236.512 65.1938C223.817 25.4444 191.006 15.8821 144.003 15.0621C143.276 15.0501 143.094 15.0473 142.912 15.0447C95.9088 15.8821 63.0975 25.4444 50.4027 65.1938C37.9786 104.616 50.5871 113.162 50.4027 133.876C50.438 137.968 49.2479 141.171 47.2935 143.898C47.4937 144.336 51.8247 137.623 54.2818 134.363Z" clip-rule="evenodd"/></g></g></g><defs><clipPath id="clip0"><rect width="288" height="307" fill="#fff"/></clipPath></defs></svg>