<svg xmlns="http://www.w3.org/2000/svg" xmlns:xlink="http://www.w3.org/1999/xlink" viewBox="0 0 500 500"><defs><filter id="luminosity-noclip" x="0" y="0" width="537.54" height="500" filterUnits="userSpaceOnUse" color-interpolation-filters="sRGB"><feFlood flood-color="#fff" result="bg"/><feBlend in="SourceGraphic" in2="bg"/></filter><mask id="mask" x="0" y="0" width="537.54" height="500" maskUnits="userSpaceOnUse"><g filter="url(#luminosity-noclip)"><path d="M248.15,84.08v9.27H221.31V416.41h26.84v9.27H59v-9.27h67.15V93.35H54V84.08Z"/><path d="M391.62,84.08c91.75,0,145.92,20.5,145.92,97.11,0,83-63.93,104.44-158.61,104.44H375V416.41h61v9.27H248.15v-9.27h31.72V93.35H248.15V84.08ZM375,276.35h10.25c41,0,51.73-28.3,51.73-84.91V168c0-55.15-11.72-74.67-48.8-74.67H375Z"/></g></mask><mask id="mask-2" x="0" y="-8442" width="500" height="32766" maskUnits="userSpaceOnUse"/></defs><title>initialsLogoBlack</title><g id="Layer_1" data-name="Layer 1"><g mask="url(#mask)"><circle cx="250" cy="250" r="250"/></g></g><g id="Layer_2" data-name="Layer 2"><g mask="url(#mask-2)"><rect width="500" height="500" fill="#f0f"/></g></g></svg>