<?xml version="1.0" encoding="utf-8"?>
<!-- Generator: Adobe Illustrator 24.0.2, SVG Export Plug-In . SVG Version: 6.00 Build 0)  -->
<svg version="1.1" id="Layer_2_1_" xmlns="http://www.w3.org/2000/svg" xmlns:xlink="http://www.w3.org/1999/xlink" x="0px" y="0px"
	 viewBox="0 0 207.6 124.8" style="enable-background:new 0 0 207.6 124.8;" xml:space="preserve">
<style type="text/css">
	.st0{fill:#FFFFFF;}
	.st1{fill:#FCC6D0;}
</style>
<title>logo2</title>
<path class="st0" d="M21.5,62.4c-4.4,0.1-8.7-1.4-12.1-4.3C5.9,55,3.9,50.5,3.9,45.8c0-2.1,0.3-4.2,0.8-6.2c0.4-1.7,0.9-3.5,1.4-5.3
	s1.1-3.5,1.8-5.1s1.1-2.7,1.5-3.7c0.1-0.2,0.1-0.4,0.2-0.5c0.6-1.3,1.5-2.5,2.6-3.5c0-0.5-0.1-1-0.1-1.5c0-2,0.4-4,1.1-5.9
	c0.6-1.6,1.5-3.2,2.6-4.5C17,8,18.6,6.7,20.3,5.7c2.1-1.2,4.4-1.8,6.9-1.8c3.5,0,6.9,1.4,9.4,3.9c2.4,2.5,3.7,5.9,3.7,9.4
	c0,3.8-1.3,7.5-3.6,10.5c-0.6,0.7-1.2,1.4-1.8,2c0.1,0.7,0.2,1.4,0.2,2c0,0.4,0,0.8,0,1.3c1.4,0.5,2.8,1.3,3.9,2.4
	c3.4,3.2,4.5,8.2,2.7,12.5c-0.1,0.2-0.2,0.5-0.4,0.8c-0.2,0.5-0.5,1-0.8,1.5c-1.2,2-2.7,3.8-4.3,5.5c-1.6,1.5-3.3,2.9-5.2,4
	C28,61.5,24.8,62.4,21.5,62.4z"/>
<path class="st0" d="M39.9,62.8c-2.8,0-5.6-0.6-8.2-1.7c-2.2-1-4.3-2.3-6.1-3.9c-1.8-1.6-3.2-3.4-4.4-5.5c-1.4-2.4-2.1-5-2.1-7.7
	c0-3.5,1.4-6.8,3.8-9.3c1.2-1.2,2.7-2.3,4.2-3.2l0.2-0.1l0.9-0.5l0.5-0.8c0.5-0.7,1-1.6,1.7-2.6l0.1-0.2c1.5-2.5,3.4-4.7,5.6-6.6
	c2.5-2.2,5.7-3.4,9-3.5c2,0,3.9,0.5,5.7,1.4c0.9,0.5,1.7,1,2.5,1.7c0.9,0.7,1.8,1.6,2.5,2.5c1.5,1.9,2.3,4.2,2.3,6.6
	c0,1-0.1,2-0.4,2.9c2.3,0.3,4.5,1.3,6.2,2.9c2.3,2.1,3.6,5.1,3.6,8.2c0,1.5-0.3,3-0.9,4.4l-0.4,0.9c-0.3,0.6-0.6,1.2-1,1.8
	c-1.7,2.5-3.9,4.7-6.4,6.4c-2.3,1.6-4.9,2.9-7.5,3.9C47.6,62.2,43.7,62.8,39.9,62.8z"/>
<path class="st0" d="M75.5,62.4c-2.6,0-5.2-0.5-7.5-1.6c-2.3,1.1-4.8,1.7-7.3,1.6c-2.1,0-4.1-0.4-6.1-1.2s-3.9-2-5.4-3.6
	c-1.4-1.4-2.5-3.1-3.3-5c-0.8-2-1.3-4.2-1.3-6.4c0-3.4,0.7-6.8,1.9-10c1.1-3,2.7-5.7,4.6-8.3c1.9-2.5,4.3-4.7,7-6.4
	c5-3.2,11.1-4,16.7-2.1c1.6,0.5,3,1.3,4.4,2.2l0.3,0.2c1,0.3,1.9,0.6,2.8,1.1c1.7,0.9,3.1,2.1,4.3,3.6c1.5,1.9,2.4,4.2,2.5,6.7
	c1.3,0.5,2.5,1.3,3.5,2.2c2.3,2.1,3.6,5.1,3.6,8.2c0,1.5-0.3,3-0.9,4.4c-0.1,0.3-0.3,0.6-0.4,0.9c-0.2,0.5-0.5,1-0.8,1.5
	c-1.2,2-2.7,3.8-4.3,5.5c-1.6,1.5-3.3,2.9-5.2,4C82,61.5,78.8,62.4,75.5,62.4z"/>
<path class="st0" d="M93.3,62.4c-2.4,0-4.8-0.5-7.1-1.5c-2.1-0.9-4-2.2-5.8-3.7c-1.8-1.6-3.3-3.5-4.4-5.7c-1.3-2.5-2-5.4-2-8.2
	c0-3,0.3-5.9,0.7-8.9c0.5-3,1.1-5.9,2-8.8c0.8-2.9,1.9-5.7,3.1-8.4s2.7-5.2,4.4-7.6c1.7-2.4,3.9-4.5,6.3-6.3c3-2.1,6.6-3.3,10.2-3.3
	c2.3,0,4.5,0.6,6.5,1.6c1.7,0.9,3.2,2,4.5,3.4c1.1,1.2,2,2.5,2.8,3.9c1,1.9,1.6,4.1,1.6,6.3c0,2.3-0.5,4.5-1.4,6.6
	c-0.3,0.7-0.7,1.5-1,2.2c1.1,1.3,2,2.8,2.7,4.4s1.1,3.4,1.2,5.2c0.8,0.4,1.6,1,2.3,1.6c2.3,2.1,3.6,5.1,3.6,8.2c0,1.5-0.3,3-0.9,4.3
	l-0.4,0.9c-0.3,0.6-0.6,1.3-1,1.8c-1.4,2-3,3.6-5,5c-1.7,1.2-3.5,2.2-5.5,3c-2.5,1-5.1,1.5-7.8,1.5C100.1,61.6,96.7,62.4,93.3,62.4z
	"/>
<path class="st0" d="M121.5,62.4c-2.5,0-5-0.4-7.4-1.2s-4.6-2-6.5-3.7c-2-1.7-3.6-3.8-4.7-6.1c-1.2-2.5-1.8-5.1-1.8-7.9
	c0-3.6,0.7-7.1,2.1-10.3c1.2-2.8,3-5.4,5.1-7.7c2-2.1,4.4-3.9,7.1-5.2c2.7-1.3,5.6-2,8.6-2.1c2.3,0,4.6,0.5,6.7,1.4
	c1.8,0.8,3.5,1.9,4.9,3.3c1.5,1.5,2.7,3.2,3.6,5.1c0.9,1.9,1.3,4,1.4,6.1c0.5,0.3,0.9,0.6,1.3,1c2.3,2.1,3.6,5.1,3.6,8.2
	c0,1.5-0.3,3-0.9,4.3c-0.1,0.3-0.3,0.6-0.4,0.9c-0.2,0.5-0.5,1-0.8,1.5c-1.4,2.3-3.3,4.4-5.4,6.2c-1.9,1.6-4.1,2.9-6.3,3.9
	C128.5,61.7,125,62.4,121.5,62.4z"/>
<path class="st0" d="M142.2,62.4c-2.3,0-4.7-0.4-6.9-1.2c-4.8-1.7-8.6-5.3-10.6-9.9c-1.1-2.5-1.6-5.2-1.6-7.9c0-2.9,0.3-5.7,0.9-8.5
	c0.6-3,1.3-5.9,2.3-8.7s2.1-5.5,3.3-8.2c1.3-2.7,2.8-5.3,4.6-7.8c1.7-2.4,3.8-4.6,6.1-6.4c2.9-2.3,6.6-3.6,10.3-3.7
	c2.3,0,4.6,0.6,6.6,1.6c1.5,0.8,2.9,1.9,4.1,3.1c1.2,1.2,2.2,2.6,2.9,4.2c0.9,1.9,1.4,3.9,1.4,6c0,2.2-0.5,4.4-1.3,6.5
	c-0.7,1.8-1.4,3.6-2.3,5.4c-0.9,1.8-2,3.6-3.2,5.5c-0.4,0.6-0.8,1.2-1.1,1.7c0.6,0.4,1.1,0.8,1.6,1.3c2.3,2.1,3.6,5.1,3.6,8.2
	c0,1.5-0.3,3-0.9,4.3c-0.1,0.3-0.3,0.6-0.4,0.9c-0.2,0.5-0.5,1-0.8,1.5c-1.2,2-2.7,3.8-4.3,5.5c-1.6,1.5-3.3,2.9-5.2,4
	C148.7,61.5,145.5,62.4,142.2,62.4z"/>
<path class="st0" d="M159.9,62.4c-2.3,0-4.7-0.4-6.9-1.2c-4.8-1.7-8.6-5.3-10.6-9.9c-1.1-2.5-1.6-5.2-1.6-7.9c0-2.9,0.3-5.7,0.9-8.5
	c0.6-3,1.3-5.9,2.3-8.7s2.1-5.5,3.3-8.2c1.3-2.7,2.8-5.3,4.6-7.8c1.7-2.4,3.8-4.6,6.2-6.5c3-2.3,6.6-3.6,10.4-3.7
	c2.3,0,4.6,0.6,6.6,1.7c1.5,0.8,2.9,1.9,4.1,3.1c1.2,1.2,2.2,2.6,2.9,4.2c0.9,1.9,1.4,3.9,1.4,6c0,2.2-0.5,4.4-1.3,6.5
	c-0.7,1.8-1.4,3.6-2.3,5.4c-0.9,1.8-2,3.6-3.2,5.5c-0.4,0.6-0.8,1.2-1.1,1.7c0.6,0.4,1.1,0.8,1.6,1.3c2.3,2.1,3.6,5.1,3.6,8.2
	c0,1.5-0.3,3-0.9,4.3c-0.1,0.3-0.3,0.6-0.4,0.9c-0.2,0.5-0.5,1-0.8,1.5c-1.2,2-2.7,3.8-4.3,5.5c-1.6,1.5-3.3,2.9-5.2,4
	C166.4,61.5,163.2,62.4,159.9,62.4z"/>
<path class="st0" d="M188.9,62.4c-2.6,0-5.2-0.5-7.5-1.6c-2.3,1.1-4.8,1.7-7.4,1.6c-2.1,0-4.1-0.4-6-1.2c-2-0.8-3.9-2-5.4-3.6
	c-3-3.1-4.6-7.2-4.6-11.4c0-3.4,0.7-6.8,1.9-10c1.1-3,2.7-5.7,4.6-8.3c1.9-2.5,4.3-4.7,7-6.4c5-3.2,11.1-4,16.7-2.1
	c1.6,0.5,3,1.3,4.4,2.2l0.3,0.2c1,0.3,2,0.6,2.9,1.1c1.7,0.9,3.1,2.1,4.3,3.6c1.6,2.1,2.5,4.7,2.5,7.4c0,1.4-0.2,2.7-0.6,4
	c0.4,0.3,0.7,0.6,1,0.9c3.9,3.8,4.5,9.9,1.3,14.4c-0.3,0.5-0.6,1-1,1.4c-1,1.2-2.1,2.3-3.2,3.3c-1.3,1.1-2.6,2-4.1,2.7
	C193.8,61.8,191.3,62.4,188.9,62.4z"/>
<path class="st0" d="M15.5,124.8c-1.3,0-2.6-0.2-3.9-0.4c-1.7-0.4-3.3-1-4.7-1.8c-1.9-1.1-3.5-2.7-4.7-4.5c-1.4-2.2-2.2-4.8-2.1-7.5
	c0-1.7,0.2-3.5,0.6-5.2c0.3-1.7,0.7-3.6,1.2-5.7s1-4.4,1.7-6.8s1.2-4.7,1.9-7s1.3-4.6,1.9-6.7s1.3-4,1.9-5.6
	c0.1-0.1,0.1-0.3,0.2-0.4c1.8-4.4,6.1-7.2,10.9-7.2c1.7,0,3.3,0.4,4.9,1l0.3-0.1c2.1-1,4.4-1.5,6.8-1.5c2.6,0,5.2,0.6,7.6,1.8
	c2,1,3.7,2.4,5.2,4.1c1.3,1.5,2.4,3.3,3.2,5.1c0.6,1.4,1,2.8,1.2,4.3c0.9,0.5,1.6,1,2.3,1.7c2.3,2.1,3.6,5.1,3.6,8.2
	c0,1.5-0.3,3-0.9,4.4c-0.1,0.3-0.2,0.6-0.4,0.8c-0.3,0.6-0.6,1.3-1,1.8c-1.3,2-3,3.6-5,5c-1.7,1.2-3.5,2.2-5.5,3
	c-2.4,0.9-4.9,1.4-7.5,1.5c-0.7,0.3-1.4,0.6-2.1,0.9c-1.9,0.7-3.9,1.2-5.9,1.3c-0.1,0.4-0.1,0.8-0.2,1.2c-0.1,1-0.2,1.9-0.2,2.9
	c0.1,6.1-4.8,11.2-10.9,11.3C15.6,124.8,15.5,124.8,15.5,124.8z"/>
<path class="st0" d="M48.6,109.4c-4.4,0.1-8.7-1.4-12.1-4.3C33,102,30.9,97.5,31,92.8c0-2.1,0.3-4.2,0.8-6.2
	c0.4-1.7,0.9-3.5,1.4-5.3s1.1-3.5,1.8-5.1s1-2.7,1.5-3.7c0.1-0.2,0.1-0.4,0.2-0.5c0.6-1.3,1.5-2.5,2.6-3.5c0-0.5-0.1-1-0.1-1.6
	c0-2,0.4-4,1.1-5.9c0.6-1.6,1.5-3.2,2.6-4.5c1.2-1.6,2.8-2.9,4.5-3.9c2.1-1.2,4.4-1.8,6.9-1.8c3.5,0,6.9,1.4,9.4,3.9
	c2.4,2.5,3.7,5.9,3.7,9.4c0,3.8-1.3,7.5-3.6,10.5c-0.6,0.7-1.2,1.4-1.8,2c0.1,0.7,0.2,1.3,0.2,2c0,0.4,0,0.8,0,1.3
	c1.4,0.5,2.8,1.3,3.9,2.4c2.3,2.1,3.6,5.1,3.6,8.2c0,1.5-0.3,3-0.9,4.4c-0.1,0.2-0.2,0.5-0.4,0.8c-0.2,0.5-0.5,1-0.8,1.5
	c-1.3,2-2.7,3.8-4.4,5.5c-1.6,1.5-3.3,2.9-5.2,4C55,108.5,51.8,109.4,48.6,109.4z"/>
<path class="st0" d="M76.2,109.4c-2.6,0-5.2-0.5-7.5-1.6c-2.3,1.1-4.8,1.7-7.3,1.6c-2.1,0-4.1-0.4-6.1-1.2c-2-0.8-3.8-2-5.4-3.6
	c-3-3.1-4.6-7.2-4.6-11.4c0-3.4,0.7-6.8,1.9-10c1.1-3,2.7-5.8,4.7-8.3c1.9-2.5,4.3-4.7,7-6.4c3.1-2,6.6-3.1,10.3-3.1
	c2.2,0,4.4,0.3,6.4,1c1.5,0.5,3,1.3,4.3,2.2l0.3,0.2c1,0.3,2,0.7,2.9,1.2c1.7,0.9,3.1,2.1,4.3,3.6c1.5,1.9,2.4,4.2,2.5,6.6
	c1.3,0.5,2.5,1.3,3.5,2.2c2.3,2.1,3.6,5.1,3.6,8.2c0,1.5-0.3,3-0.9,4.4c-0.1,0.3-0.3,0.6-0.4,0.9c-0.2,0.5-0.5,1-0.8,1.5
	c-1.2,2-2.7,3.8-4.3,5.5c-1.6,1.5-3.3,2.9-5.2,4C82.7,108.5,79.5,109.4,76.2,109.4z"/>
<path class="st0" d="M104.7,109.4c-3.2,0-6.4-0.7-9.3-2.3c-0.2,0.2-0.4,0.3-0.7,0.5c-1.9,1.2-4.1,1.8-6.4,1.8
	c-3.1,0.1-6.3-0.7-9-2.3c-4.1-2.2-6.6-6.4-6.6-11c0-2.5,0.3-4.9,0.8-7.3c0.4-2.2,1-4.3,1.6-6.3s1.2-3.7,1.8-5.4s1.1-3,1.6-4
	c1.8-4.4,6.1-7.2,10.8-7.2c1.8,0,3.6,0.4,5.2,1.1c0.5-0.2,1-0.4,1.4-0.6c2.2-0.8,4.6-1.2,7-1.2c2.2,0,4.4,0.6,6.4,1.6
	c3.2,1.6,5.7,4.3,7.3,7.5c0.8,1.7,1.3,3.6,1.4,5.5c1.5,0.5,2.8,1.3,4,2.4c2.3,2.1,3.6,5.1,3.6,8.2c0,1.5-0.3,3-0.9,4.3
	c-0.1,0.3-0.3,0.6-0.4,0.9c-0.2,0.5-0.5,1-0.8,1.5c-1.2,2-2.7,3.8-4.3,5.5c-1.6,1.5-3.3,2.9-5.2,4
	C111.2,108.5,108,109.4,104.7,109.4z"/>
<path class="st0" d="M120.2,109.4c-2.1,0-4.2-0.3-6.2-1s-4-1.7-5.7-3.1c-1.8-1.4-3.2-3-4.4-4.9c-1.5-2.4-2.3-5.2-2.3-8.1
	c0-1.6,0.2-3.2,0.4-4.7c0.3-1.5,0.6-3.1,1-4.8c0.3-1.2,0.6-2.4,1-3.6c-0.4-1.2-0.7-2.5-0.7-3.8c0.2-4,2.1-7.7,5.4-10
	c0.1-0.2,0.1-0.3,0.2-0.5c0.6-1.5,1.4-3,2.2-4.5c0.8-1.5,1.9-2.8,3.2-3.8c2-1.6,4.6-2.5,7.2-2.5c2.1,0,4.2,0.5,6.1,1.5
	c1.1,0.6,2.2,1.2,3.1,2c1,0.8,2,1.7,2.8,2.8c1.5,1.8,2.4,4.1,2.6,6.4c1.7,1.9,2.6,4.4,2.6,7c0,1.8-0.4,3.5-1.2,5.1
	c-0.4,0.8-0.9,1.6-1.5,2.3c0.5,0.3,1,0.7,1.5,1.2c2.3,2.1,3.6,5.1,3.6,8.2c0,1.5-0.3,3-0.9,4.4l-0.4,0.9c-0.2,0.5-0.5,1-0.8,1.5
	c-1.2,2-2.7,3.8-4.3,5.5c-1.6,1.5-3.3,2.9-5.2,4C126.7,108.5,123.5,109.4,120.2,109.4z"/>
<path class="st0" d="M136.8,109.4c-4.9,0-9.6-1.8-13.2-5c-1.9-1.6-3.4-3.6-4.4-5.9c-1.1-2.4-1.7-5-1.7-7.6c0-3.7,0.7-7.4,2.2-10.7
	c1.3-3,3.2-5.7,5.5-8c2.2-2.2,4.8-3.9,7.6-5.1c2.7-1.2,5.7-1.8,8.6-1.8c2.4,0,4.7,0.4,6.9,1.2c2.4,0.9,4.6,2.3,6.4,4.1
	c2.6,2.6,4.3,5.9,5.1,9.5c1.3,0.5,2.5,1.3,3.6,2.3c2.3,2.1,3.6,5.1,3.6,8.2c0,1.5-0.3,3-0.9,4.3l-0.4,0.9c-0.3,0.6-0.6,1.3-1,1.8
	c-1.3,1.9-3,3.6-4.9,5c-1.7,1.2-3.5,2.2-5.5,3c-2.6,1-5.3,1.5-8.1,1.5c-0.7,0.4-1.5,0.7-2.3,1C141.6,108.9,139.2,109.4,136.8,109.4z
	"/>
<path class="st0" d="M174.6,109.4c-3.2,0-6.4-0.7-9.3-2.3c-0.2,0.2-0.4,0.3-0.7,0.5c-1.9,1.2-4.1,1.8-6.4,1.8
	c-3.1,0.1-6.3-0.7-9-2.3c-4.1-2.2-6.6-6.4-6.6-11c0-2.5,0.3-4.9,0.8-7.3c0.4-2.2,1-4.3,1.6-6.3s1.2-3.7,1.8-5.4s1.1-3,1.6-4
	c1.8-4.4,6.1-7.2,10.8-7.2c1.8,0,3.6,0.4,5.2,1.1c0.5-0.2,0.9-0.4,1.4-0.6c2.2-0.8,4.6-1.2,7-1.2c2.2,0,4.5,0.6,6.4,1.6
	c3.2,1.6,5.7,4.3,7.3,7.5c0.8,1.7,1.3,3.6,1.3,5.5c1.5,0.5,2.8,1.3,4,2.4c2.3,2.1,3.6,5.1,3.6,8.2c0,1.5-0.3,3-0.9,4.3
	c-0.1,0.3-0.3,0.6-0.4,0.9c-0.2,0.5-0.5,1-0.8,1.5c-1.2,2-2.7,3.8-4.3,5.5c-1.6,1.5-3.3,2.9-5.2,4
	C181.1,108.5,177.8,109.4,174.6,109.4z"/>
<path class="st0" d="M188.9,109.4c-4.4,0.1-8.7-1.4-12.1-4.3c-3.6-3.1-5.6-7.6-5.5-12.3c0-2.1,0.3-4.2,0.8-6.2
	c0.4-1.7,0.9-3.5,1.4-5.3s1.1-3.5,1.8-5.1s1.1-2.7,1.5-3.7c0.1-0.2,0.2-0.3,0.3-0.5c0.6-1.3,1.5-2.5,2.6-3.5c-0.1-0.5-0.1-1-0.1-1.6
	c0-2,0.4-4,1.1-5.9c0.6-1.6,1.5-3.2,2.6-4.5c1.2-1.6,2.8-2.9,4.5-3.9c2.1-1.2,4.4-1.8,6.8-1.8c3.5,0,6.9,1.4,9.4,3.9
	c2.4,2.5,3.7,5.9,3.7,9.4c0,1.9-0.3,3.8-1,5.6c-0.6,1.8-1.5,3.4-2.6,4.9c-0.6,0.7-1.2,1.4-1.8,2c0.1,0.7,0.2,1.3,0.2,2
	c0,2-0.3,3.9-0.9,5.8c5.2,3.4,6.6,10.3,3.2,15.4c-0.1,0.1-0.1,0.2-0.2,0.3c-0.3,0.5-0.6,1-1,1.4c-1,1.2-2.1,2.2-3.2,3.2
	c-1.3,1.1-2.6,2-4.1,2.8C193.9,108.8,191.4,109.4,188.9,109.4z"/>
<path class="st1" d="M21.6,46.1c0,0.6,0.2,1.2,0.5,1.7c0.3,0.4,0.9,0.7,1.4,0.6c0.9,0,1.7-0.3,2.4-0.8c0.8-0.5,1.5-1.1,2.1-1.8
	c0.8-0.8,1.4-1.6,2-2.6c0.1-0.2,0.2-0.3,0.3-0.4c0.1-0.1,0.2-0.2,0.4-0.3c0.2-0.1,0.3-0.2,0.5-0.2c0.3,0,0.6,0.1,0.9,0.4
	c0.2,0.2,0.4,0.5,0.4,0.8c0,0.2,0,0.3-0.1,0.5c-0.1,0.1-0.1,0.3-0.2,0.5S32,44.8,32,45c-0.8,1.3-1.8,2.6-2.9,3.7
	c-1,1-2.1,1.8-3.3,2.5c-1.2,0.8-2.7,1.1-4.1,1.1c-2,0.1-4-0.6-5.5-1.8c-1.4-1.2-2.2-2.9-2.1-4.8c0-1.3,0.2-2.6,0.5-3.9
	c0.4-1.5,0.8-3.1,1.3-4.6c0.5-1.6,1-3,1.5-4.4c0.5-1.4,1-2.5,1.4-3.4c0.2-0.3,0.4-0.6,0.7-0.8c0.3-0.2,0.6-0.3,1-0.3
	c0.5,0,1,0.2,1.5,0.4c0.5,0.3,1.1,0.6,1.6,1c0.4,0.3,0.8,0.7,1.2,1.1c0.3,0.2,0.4,0.6,0.5,0.9c0,1-0.2,2-0.5,3
	c-0.4,1.1-0.8,2.2-1.2,3.4c-0.4,1.2-0.8,2.5-1.2,3.8C21.7,43.3,21.6,44.7,21.6,46.1z M30.2,17.2c0,0.8-0.1,1.6-0.4,2.3
	c-0.2,0.7-0.6,1.4-1.1,2c-0.4,0.6-1,1-1.6,1.4c-0.6,0.3-1.2,0.5-1.8,0.5c-0.8,0-1.7-0.3-2.3-0.9c-0.7-0.7-1-1.6-1-2.5
	c0-0.8,0.1-1.5,0.4-2.2s0.6-1.4,1.1-2c0.4-0.6,1-1,1.6-1.4s1.3-0.5,2-0.5c0.8,0,1.6,0.3,2.2,0.9C29.9,15.5,30.3,16.3,30.2,17.2z"/>
<path class="st1" d="M56.9,45c-1,1.5-2.3,2.9-3.9,3.9c-1.6,1.1-3.4,2-5.3,2.7c-2.5,0.9-5.2,1.3-7.8,1.2c-1.4,0-2.9-0.3-4.2-0.9
	c-1.3-0.5-2.4-1.3-3.5-2.2c-0.9-0.8-1.7-1.8-2.3-2.9C29.4,46,29.1,45,29,44c0-0.8,0.3-1.6,0.9-2.2c0.6-0.6,1.3-1.1,2-1.5
	c0.9-0.5,1.9-0.8,2.9-1.1c0.2-0.4,0.6-0.9,1-1.5s0.8-1.3,1.3-2c0.5-0.8,1.1-1.7,1.8-2.8c1-1.6,2.2-3.1,3.6-4.4
	c0.7-0.7,1.6-1.1,2.6-1.2c0.4,0,0.7,0.1,1,0.3c0.4,0.2,0.7,0.4,1,0.6s0.5,0.5,0.7,0.7c0.1,0.2,0.2,0.4,0.3,0.6
	c0,0.3-0.1,0.5-0.2,0.8l-0.5,1c-0.2,0.3-0.3,0.7-0.5,1.1c-0.1,0.4-0.2,0.8-0.2,1.2c0,1.1,0.1,2.1,0.4,3.1c0.2,0.8,0.5,1.7,0.8,2.5
	s0.6,1.5,0.8,2.3c0.3,0.8,0.4,1.6,0.4,2.5c0,0.7-0.1,1.3-0.2,2c-0.1,0.5-0.3,1-0.5,1.4s-0.4,0.8-0.7,1.1c1.1-0.3,2.2-0.8,3.2-1.3
	c0.8-0.5,1.6-1.1,2.3-1.7c0.7-0.7,1.3-1.4,1.9-2.2c0.1-0.2,0.2-0.3,0.3-0.4c0.1-0.1,0.2-0.2,0.4-0.3s0.3-0.2,0.5-0.2
	c0.3,0,0.6,0.1,0.9,0.4c0.2,0.2,0.4,0.5,0.4,0.8c0,0.2,0,0.3-0.1,0.5c-0.1,0.1-0.1,0.3-0.2,0.5C57,44.6,56.9,44.8,56.9,45z
	 M39.9,35.7c-0.8,1.3-1.6,2.4-2.2,3.5c-0.6,0.9-1.1,1.8-1.5,2.6c-0.3,0.5-0.5,1-0.7,1.5c0,0.9,0,1.7,0.2,2.5
	c0.1,0.7,0.3,1.5,0.5,2.2c0.2,0.6,0.5,1.1,0.9,1.5s0.9,0.6,1.4,0.6c1,0,1.9-0.6,2.4-1.5c0.7-1.1,1-2.3,1-3.5c0-0.8-0.1-1.6-0.3-2.4
	c-0.2-0.8-0.4-1.7-0.6-2.5c-0.2-0.8-0.4-1.6-0.6-2.4C40.1,37.1,40,36.4,39.9,35.7z"/>
<path class="st1" d="M85.8,45c-0.8,1.3-1.8,2.6-2.9,3.7c-1,1-2.1,1.8-3.3,2.5c-1.2,0.8-2.7,1.1-4.1,1.1c-1.5,0-3-0.4-4.3-1.3
	c-1.2-0.9-1.9-2.3-2-3.8c-0.8,1-1.6,1.8-2.6,2.6c-0.8,0.7-1.7,1.2-2.7,1.7c-1,0.5-2.1,0.8-3.2,0.8c-0.8,0-1.6-0.1-2.3-0.5
	c-0.7-0.3-1.4-0.7-1.9-1.3c-1.2-1.2-1.8-2.8-1.8-4.5c0-2.2,0.4-4.4,1.2-6.4c0.8-2.1,1.9-4,3.2-5.7c1.2-1.6,2.7-3,4.4-4.1
	c2.4-1.6,5.3-2,8-1.1c0.7,0.2,1.4,0.6,2,1c0.5,0.4,1,0.8,1.4,1.3c0.5,0,0.9,0.1,1.4,0.2s0.9,0.3,1.4,0.5c0.4,0.2,0.7,0.5,1,0.9
	s0.5,0.8,0.5,1.3c-0.1,0.7-0.3,1.5-0.5,2.2l-1.2,3.3c-0.4,1.2-0.8,2.5-1.2,3.8c-0.3,1.1-0.5,2.3-0.5,3.5c0,0.4,0.1,0.9,0.4,1.2
	s0.8,0.5,1.2,0.5c0.9,0,1.7-0.3,2.4-0.8c0.8-0.5,1.5-1.1,2.1-1.8c0.8-0.8,1.4-1.6,2-2.6c0.1-0.2,0.2-0.3,0.3-0.4
	c0.1-0.1,0.2-0.2,0.4-0.3c0.2-0.1,0.3-0.2,0.5-0.2c0.3,0,0.6,0.1,0.9,0.4c0.2,0.2,0.4,0.5,0.4,0.8c0,0.2,0,0.3-0.1,0.5
	c-0.1,0.1-0.1,0.3-0.2,0.5S85.9,44.8,85.8,45z M71.9,34.4c0.1-0.7-0.2-1.4-0.6-2c-0.4-0.4-1-0.6-1.5-0.6c-1,0.1-2,0.6-2.7,1.4
	c-1,1-1.8,2.1-2.5,3.4c-0.8,1.4-1.4,2.9-1.8,4.4c-0.4,1.4-0.7,2.8-0.7,4.2c0,1.8,0.6,2.7,1.7,2.7c1-0.1,1.9-0.7,2.5-1.4
	c1-1.1,1.9-2.3,2.7-3.5c0.8-1.4,1.6-2.9,2.1-4.4C71.6,37.1,71.9,35.8,71.9,34.4z"/>
<path class="st1" d="M113,45c-0.7,1-1.6,1.9-2.6,2.6c-1,0.7-2.1,1.4-3.3,1.8c-1.5,0.5-3,0.8-4.6,0.8h-1c-0.3,0-0.7,0-1-0.1
	c-2.1,1.6-4.6,2.4-7.2,2.3c-1.1,0-2.2-0.2-3.2-0.7c-1.1-0.5-2.1-1.1-3-1.9C86.2,49,85.4,48,84.8,47c-0.6-1.1-0.9-2.3-0.9-3.6
	c0-2.5,0.2-4.9,0.6-7.3c0.4-2.6,1-5.1,1.7-7.6c0.7-2.4,1.6-4.7,2.6-7c0.9-2.1,2.1-4,3.4-5.9c1.1-1.5,2.5-2.9,4-4
	c1.3-1,2.9-1.5,4.5-1.5c0.7,0,1.4,0.2,2,0.5c0.7,0.3,1.2,0.8,1.7,1.3s0.9,1.1,1.2,1.7c0.3,0.5,0.5,1.1,0.5,1.7c0,1-0.2,1.9-0.6,2.8
	c-0.5,1.1-1,2.1-1.6,3.1c-0.6,1.1-1.3,2.1-2.1,3.1c-0.8,1-1.5,1.9-2.1,2.7s-1.2,1.4-1.6,1.9l-0.7,0.8c0.2-0.1,0.3-0.2,0.5-0.3
	c0.3-0.2,0.6-0.3,1-0.5s0.9-0.4,1.3-0.5c0.5-0.1,1-0.2,1.5-0.2c0.8,0,1.6,0.2,2.3,0.6c0.7,0.4,1.4,0.9,1.9,1.5s1,1.3,1.3,2.1
	c0.3,0.7,0.5,1.5,0.5,2.3c0,2.2-0.4,4.3-1.1,6.4c-0.7,2.2-1.8,4.3-3.2,6.1c0.2,0,0.4,0.1,0.6,0.1c1,0,1.9-0.2,2.8-0.6
	c0.8-0.4,1.5-0.9,2.2-1.4c0.7-0.6,1.4-1.3,2-2c0.1-0.2,0.2-0.3,0.3-0.4c0.1-0.1,0.2-0.2,0.4-0.3c0.2-0.1,0.3-0.2,0.5-0.2
	c0.3,0,0.6,0.1,0.9,0.4c0.2,0.2,0.4,0.5,0.4,0.8c0,0.2,0,0.3-0.1,0.5c-0.1,0.1-0.1,0.3-0.2,0.5S113.1,44.8,113,45z M90.7,44.8
	c0,1.1,0.2,2.1,0.7,3.1c0.3,0.8,1.1,1.2,1.9,1.3c0.7,0,1.5-0.3,2-0.8c-0.3-0.3-0.5-0.6-0.5-1s0.1-0.7,0.3-1c0.2-0.4,0.5-0.7,0.8-1
	s0.6-0.5,1-0.7c0.3-0.2,0.6-0.3,0.9-0.3H98c0.7-1.4,1.2-3,1.6-4.5s0.6-3,0.6-4.5c0-0.9-0.1-1.8-0.4-2.7c-0.4-0.7-1.1-1.1-1.9-1
	c-0.7,0.1-1.4,0.4-2,0.8C95,33.2,94.2,34,93.5,35c-0.9,1.3-1.5,2.6-2,4.1C91,40.9,90.7,42.8,90.7,44.8L90.7,44.8z M102.6,15.2
	c0-0.8-0.4-1.2-1.1-1.2c-0.6,0-1.2,0.5-2,1.5c-0.9,1.2-1.7,2.5-2.4,3.9c-0.9,1.8-1.7,3.7-2.4,5.5c-0.8,2.1-1.5,4.2-2,6.4
	c1.2-1.1,2.2-2.4,3.3-3.7c1.2-1.5,2.2-3,3.2-4.5c0.9-1.4,1.8-2.9,2.5-4.4C102.2,17.6,102.6,16.4,102.6,15.2L102.6,15.2z"/>
<path class="st1" d="M134.9,45c-0.9,1.4-2,2.7-3.3,3.7s-2.7,1.9-4.2,2.5c-1.9,0.8-3.9,1.2-5.9,1.1c-1.4,0-2.8-0.2-4.2-0.7
	c-1.2-0.4-2.3-1-3.3-1.8c-0.9-0.8-1.6-1.7-2.2-2.8c-0.5-1.1-0.8-2.3-0.8-3.5c0-2.1,0.4-4.3,1.3-6.2c0.8-1.8,1.9-3.4,3.2-4.8
	c1.2-1.3,2.6-2.3,4.2-3.1c1.3-0.7,2.8-1,4.2-1.1c0.9,0,1.8,0.2,2.6,0.5c0.8,0.3,1.5,0.8,2.1,1.4s1.1,1.2,1.4,2
	c0.3,0.7,0.5,1.5,0.5,2.3c0,0.9-0.2,1.8-0.5,2.6c-0.3,1.1-0.9,2-1.6,2.9c-0.8,1-1.8,1.8-3,2.4c-1.5,0.7-3.1,1.1-4.7,1
	c-0.5,0-0.9-0.1-1.4-0.2c-0.3,0-0.6-0.1-0.9-0.2c-0.1,1.5,0.5,3,1.6,4.1c1,0.9,2.3,1.5,3.7,1.4c1.3,0,2.6-0.3,3.8-0.9
	c1.1-0.5,2.1-1.2,3-1.9c1-0.8,1.8-1.7,2.5-2.7c0.1-0.2,0.2-0.3,0.3-0.4c0.1-0.1,0.2-0.2,0.4-0.3s0.3-0.2,0.5-0.2
	c0.3,0,0.6,0.1,0.9,0.4c0.2,0.2,0.4,0.5,0.4,0.8c0,0.2,0,0.3-0.1,0.5c-0.1,0.1-0.1,0.3-0.2,0.5C135.1,44.6,135,44.8,134.9,45z
	 M118.8,40.7c1.1,0,2.1-0.3,3.1-0.9c0.9-0.6,1.8-1.3,2.5-2.2c0.7-0.8,1.2-1.7,1.7-2.7c0.4-0.7,0.6-1.5,0.6-2.3s-0.4-1.2-1.1-1.2
	c-0.9,0-1.8,0.4-2.5,1c-0.8,0.7-1.5,1.5-2.1,2.5s-1.1,2-1.6,3.1C119,38.8,118.8,39.7,118.8,40.7z"/>
<path class="st1" d="M142.2,52.4c-1.2,0-2.3-0.2-3.4-0.6c-1.1-0.4-2.1-1-2.9-1.8c-0.9-0.8-1.5-1.8-2-2.8c-0.5-1.2-0.8-2.5-0.8-3.8
	c0-2.2,0.3-4.5,0.7-6.7c0.5-2.5,1.1-4.9,1.9-7.4c0.8-2.4,1.8-4.8,2.9-7.2c1-2.2,2.2-4.3,3.6-6.2c1.2-1.6,2.5-3.1,4.1-4.4
	c1.2-1,2.7-1.6,4.3-1.6c0.7,0,1.3,0.2,1.9,0.5c0.6,0.3,1.1,0.7,1.6,1.2s0.8,1,1.1,1.6c0.3,0.5,0.4,1.1,0.4,1.6
	c-0.1,1.1-0.3,2.2-0.7,3.2c-0.5,1.4-1.1,2.8-1.8,4.2c-0.8,1.5-1.6,3.1-2.7,4.6c-1,1.6-2.1,3.2-3.2,4.6c-1.1,1.5-2.2,2.9-3.4,4.2
	c-1,1.2-2,2.2-3.2,3.2c-0.1,0.5-0.2,1-0.2,1.5c-0.1,0.5-0.1,1-0.2,1.5c0,0.5-0.1,1.1-0.1,1.6c-0.1,1.2,0.3,2.4,1,3.4
	c0.7,0.9,1.7,1.4,2.9,1.3c0.9,0,1.7-0.3,2.4-0.8c0.8-0.5,1.5-1.1,2.1-1.8c0.8-0.8,1.4-1.6,2-2.6c0.1-0.2,0.2-0.3,0.3-0.4
	c0.1-0.1,0.2-0.2,0.4-0.3s0.3-0.2,0.5-0.2c0.3,0,0.6,0.1,0.9,0.4c0.2,0.2,0.4,0.5,0.4,0.8c0,0.2,0,0.3-0.1,0.5
	c-0.1,0.1-0.1,0.3-0.2,0.5s-0.2,0.3-0.2,0.5c-0.8,1.3-1.8,2.6-2.9,3.7c-1,1-2.1,1.8-3.3,2.5C145.1,52,143.7,52.4,142.2,52.4z
	 M152.7,14.9c0-0.6-0.2-0.8-0.7-0.8s-1.2,0.6-2.2,1.8c-1.1,1.5-2,3.1-2.8,4.8c-1,2-1.9,4.2-2.9,6.7c-0.9,2.4-1.7,4.9-2.3,7.5
	c0.8-0.7,1.6-1.5,2.3-2.4c0.9-1.1,1.7-2.3,2.4-3.5c0.8-1.3,1.6-2.7,2.3-4.1s1.4-2.7,2-4s1.1-2.5,1.4-3.6
	C152.5,16.6,152.7,15.8,152.7,14.9z"/>
<path class="st1" d="M159.9,52.4c-1.2,0-2.3-0.2-3.4-0.6c-1.1-0.4-2.1-1-2.9-1.8c-0.9-0.8-1.5-1.8-2-2.8c-0.5-1.2-0.8-2.5-0.8-3.8
	c0-2.2,0.3-4.5,0.7-6.7c0.5-2.5,1.2-5,2-7.4s1.8-4.8,2.9-7.2c1-2.2,2.2-4.3,3.6-6.2c1.2-1.6,2.5-3.1,4.1-4.4c1.2-1,2.7-1.6,4.3-1.6
	c0.7,0,1.3,0.2,1.9,0.5c0.6,0.3,1.1,0.7,1.6,1.2c0.4,0.5,0.8,1,1.1,1.6c0.3,0.5,0.4,1.1,0.4,1.7c-0.1,1.1-0.3,2.2-0.7,3.2
	c-0.5,1.4-1.1,2.8-1.8,4.2c-0.8,1.5-1.6,3-2.7,4.6c-1,1.6-2.1,3.1-3.2,4.6c-1.1,1.5-2.2,2.9-3.3,4.2c-1,1.2-2,2.2-3.2,3.2
	c-0.1,0.5-0.2,1-0.2,1.5c-0.1,0.5-0.1,1-0.2,1.5c0,0.5-0.1,1.1-0.1,1.6c-0.1,1.2,0.3,2.4,1,3.4c0.7,0.9,1.7,1.4,2.9,1.3
	c0.9,0,1.7-0.3,2.4-0.8c0.8-0.5,1.5-1.1,2.1-1.8c0.8-0.8,1.4-1.6,2-2.6c0.1-0.2,0.2-0.3,0.3-0.4c0.1-0.1,0.2-0.2,0.4-0.3
	s0.3-0.2,0.5-0.2c0.3,0,0.6,0.1,0.9,0.4c0.2,0.2,0.4,0.5,0.4,0.8c0,0.2,0,0.3-0.1,0.5c-0.1,0.1-0.1,0.3-0.2,0.5
	c-0.1,0.2-0.2,0.3-0.2,0.5c-0.8,1.3-1.8,2.6-2.9,3.7c-1,1-2.1,1.8-3.3,2.5C162.8,52,161.3,52.4,159.9,52.4z M170.4,14.9
	c0-0.6-0.2-0.8-0.7-0.8s-1.2,0.6-2.2,1.8c-1.1,1.5-2,3.2-2.8,4.9c-1,2-1.9,4.2-2.9,6.7c-0.9,2.4-1.7,4.9-2.3,7.5
	c0.8-0.7,1.6-1.5,2.3-2.4c0.9-1.1,1.7-2.3,2.4-3.5c0.8-1.3,1.6-2.7,2.3-4.1s1.4-2.7,2-4s1.1-2.5,1.4-3.6
	C170.1,16.6,170.3,15.8,170.4,14.9z"/>
<path class="st1" d="M195.7,48.2c-0.6,0.8-1.3,1.5-2.1,2.1c-0.7,0.6-1.4,1.1-2.2,1.5s-1.7,0.6-2.6,0.6c-1.5,0-3-0.4-4.3-1.3
	c-1.2-0.9-1.9-2.3-2-3.8c-0.8,1-1.6,1.8-2.6,2.6c-0.8,0.7-1.7,1.2-2.7,1.7s-2.1,0.8-3.2,0.8c-0.8,0-1.6-0.2-2.3-0.5
	s-1.4-0.7-1.9-1.3c-1.2-1.2-1.8-2.8-1.8-4.5c0-2.2,0.4-4.4,1.2-6.4c0.8-2.1,1.9-4,3.2-5.7c1.2-1.6,2.7-3,4.4-4.1
	c2.4-1.6,5.3-2,8-1.1c0.7,0.2,1.4,0.6,2,1c0.5,0.4,1,0.9,1.4,1.4c0.5,0,0.9,0.1,1.4,0.2s0.9,0.3,1.4,0.5c0.4,0.2,0.8,0.5,1.1,0.9
	s0.4,0.8,0.4,1.3c-0.1,0.7-0.3,1.5-0.5,2.2l-1.2,3.3c-0.4,1.2-0.8,2.5-1.2,3.8c-0.3,1.1-0.5,2.3-0.5,3.5c0,0.4,0.1,0.9,0.4,1.2
	c0.3,0.3,0.8,0.5,1.2,0.5s0.7-0.1,1-0.3s0.7-0.4,1-0.7c0.4-0.3,0.7-0.6,1-1c0.2-0.2,0.3-0.4,0.5-0.6c0.2-0.2,0.5-0.3,0.7-0.3
	c0.7,0.1,1.3,0.6,1.3,1.3c0,0.3-0.2,0.6-0.4,0.8C195.9,47.9,195.8,48,195.7,48.2z M185.3,34.4c0.1-0.7-0.2-1.4-0.6-2
	c-0.4-0.4-1-0.6-1.5-0.6c-1,0.1-2,0.6-2.7,1.4c-1,1-1.8,2.1-2.5,3.4c-0.8,1.4-1.4,2.9-1.8,4.4c-0.4,1.4-0.7,2.8-0.7,4.2
	c0,1.8,0.6,2.7,1.7,2.7c1-0.1,1.9-0.7,2.5-1.4c1-1.1,1.9-2.3,2.7-3.5c0.8-1.4,1.6-2.9,2.1-4.4C184.9,37.1,185.2,35.8,185.3,34.4z"/>
<path class="st1" d="M44.6,92c-0.7,1-1.6,1.9-2.6,2.6s-2.1,1.4-3.3,1.8c-1.5,0.5-3,0.8-4.6,0.8h-0.9c-0.3,0-0.7,0-1-0.1
	c-0.9,0.7-1.9,1.3-3,1.7c-1.1,0.4-2.3,0.6-3.4,0.6c-0.9,0-1.7-0.1-2.5-0.4c-0.7-0.2-1.3-0.6-1.9-1s-1.1-1-1.6-1.6
	c-0.4,1.1-0.8,2.3-1.1,3.5c-0.4,1.5-0.7,3-1,4.7s-0.6,3.3-0.8,4.9c-0.2,1.4-0.3,2.8-0.3,4.1c0,0.9-0.4,1.3-1.1,1.3
	c-0.6,0-1.2-0.1-1.8-0.2s-1.2-0.4-1.8-0.7c-0.5-0.3-1-0.8-1.4-1.3c-0.4-0.6-0.6-1.3-0.5-2c0-1.1,0.2-2.3,0.4-3.4
	c0.3-1.5,0.6-3.3,1.1-5.3c0.4-2,1-4.2,1.6-6.4c0.6-2.4,1.3-4.7,1.8-7c0.6-2.3,1.2-4.4,1.9-6.4c0.6-2,1.2-3.7,1.7-5.1
	c0.3-0.7,0.9-1.2,1.7-1.1c0.6,0,1.2,0.2,1.7,0.5c1,0.7,1.8,1.6,2.4,2.7c0.8-0.7,1.7-1.3,2.6-1.9c0.8-0.5,1.6-0.9,2.5-1.3
	s1.8-0.6,2.7-0.6c1,0,2,0.2,2.9,0.7c0.9,0.4,1.6,1,2.3,1.8c0.6,0.7,1.1,1.5,1.5,2.4c0.4,0.8,0.5,1.7,0.5,2.6c0,1.9-0.4,3.8-1.1,5.6
	c-0.7,2.1-1.8,4-3.2,5.8c0.2,0,0.4,0.1,0.5,0.1c1,0,1.9-0.2,2.8-0.6c0.8-0.4,1.5-0.9,2.2-1.4c0.7-0.6,1.4-1.3,2-2
	c0.1-0.2,0.2-0.3,0.3-0.4s0.2-0.2,0.4-0.3c0.2-0.1,0.3-0.2,0.5-0.2c0.3,0,0.6,0.1,0.9,0.4c0.2,0.2,0.4,0.5,0.4,0.8
	c0,0.2,0,0.3-0.1,0.4s-0.1,0.3-0.2,0.4C44.7,91.6,44.6,91.8,44.6,92z M21.4,91.4c0,1.1,0.3,2.2,0.9,3.2c0.5,0.9,1.4,1.4,2.4,1.4
	c0.8,0,1.5-0.4,2-0.9c-0.2-0.2-0.3-0.5-0.3-0.8c0-0.4,0.1-0.7,0.3-1c0.2-0.3,0.5-0.7,0.8-0.9c0.3-0.3,0.6-0.5,1-0.7
	c0.3-0.2,0.6-0.3,0.9-0.3c0.4-0.8,0.7-1.6,1-2.5s0.6-1.7,0.8-2.5c0.2-0.8,0.4-1.6,0.5-2.3c0.1-0.6,0.2-1.2,0.2-1.8
	c0.1-0.8-0.1-1.6-0.5-2.3c-0.4-0.5-0.9-0.7-1.5-0.7c-1,0.1-1.9,0.6-2.6,1.3c-1,0.9-2,2-2.8,3.2c-0.9,1.2-1.6,2.5-2.2,3.9
	C21.7,88.9,21.4,90.2,21.4,91.4z"/>
<path class="st1" d="M48.6,93.1c0,0.6,0.2,1.2,0.5,1.7c0.3,0.4,0.9,0.7,1.4,0.6c0.9,0,1.7-0.3,2.4-0.8c0.8-0.5,1.5-1.1,2.1-1.8
	c0.8-0.8,1.4-1.6,2-2.6c0.1-0.2,0.2-0.3,0.3-0.4s0.2-0.2,0.4-0.3c0.2-0.1,0.3-0.2,0.5-0.2c0.3,0,0.6,0.1,0.9,0.4
	c0.2,0.2,0.4,0.5,0.4,0.8c0,0.2,0,0.3-0.1,0.4s-0.1,0.3-0.2,0.4c-0.1,0.2-0.2,0.3-0.2,0.5c-0.8,1.3-1.8,2.6-2.9,3.7
	c-1,1-2.1,1.8-3.3,2.5c-1.2,0.8-2.7,1.1-4.1,1.1c-2,0.1-4-0.6-5.5-1.8c-1.4-1.2-2.2-2.9-2.1-4.8c0-1.3,0.2-2.6,0.5-3.8
	c0.4-1.5,0.8-3.1,1.3-4.6c0.5-1.6,1-3,1.5-4.4s1-2.5,1.3-3.4c0.2-0.3,0.4-0.6,0.7-0.8c0.3-0.2,0.6-0.3,1-0.3c0.5,0,1,0.2,1.5,0.4
	c0.5,0.3,1.1,0.6,1.6,1c0.4,0.3,0.8,0.7,1.2,1.1c0.3,0.2,0.4,0.6,0.5,0.9c0,1-0.2,2-0.5,3c-0.4,1.1-0.8,2.2-1.2,3.4
	c-0.4,1.2-0.8,2.4-1.2,3.7C48.8,90.3,48.6,91.7,48.6,93.1z M57.3,64.2c0,0.8-0.1,1.6-0.4,2.3c-0.2,0.7-0.6,1.4-1.1,2
	c-0.4,0.6-1,1-1.6,1.4c-0.6,0.3-1.2,0.5-1.8,0.5c-0.8,0-1.7-0.3-2.3-0.9c-0.7-0.7-1-1.6-1-2.5c0-0.8,0.1-1.5,0.4-2.2
	c0.3-0.7,0.6-1.4,1.1-2c0.4-0.6,1-1.1,1.6-1.4c0.6-0.3,1.2-0.5,1.9-0.5c0.8,0,1.6,0.3,2.2,0.9C57,62.5,57.3,63.3,57.3,64.2z"/>
<path class="st1" d="M86.6,92c-0.8,1.3-1.8,2.6-2.9,3.7c-1,1-2.1,1.8-3.3,2.5c-1.2,0.8-2.7,1.1-4.1,1.1c-1.5,0-3-0.4-4.2-1.3
	s-1.9-2.3-2-3.8c-0.8,1-1.6,1.8-2.6,2.6c-0.8,0.7-1.7,1.2-2.7,1.7s-2.1,0.8-3.2,0.8c-0.8,0-1.6-0.2-2.3-0.4
	c-0.7-0.3-1.4-0.7-1.9-1.3c-1.2-1.2-1.8-2.8-1.8-4.5c0-2.2,0.4-4.4,1.2-6.4c0.8-2.1,1.9-4,3.2-5.7c1.2-1.6,2.7-3,4.4-4.1
	c2.4-1.6,5.3-2,8-1.1c0.7,0.2,1.4,0.6,2,1c0.5,0.4,1,0.9,1.4,1.4c0.5,0,0.9,0.1,1.4,0.2s0.9,0.3,1.4,0.5c0.4,0.2,0.7,0.5,1,0.9
	c0.3,0.3,0.5,0.8,0.5,1.2c-0.1,0.7-0.3,1.5-0.5,2.2l-1.2,3.3c-0.4,1.2-0.8,2.5-1.2,3.8c-0.3,1.1-0.5,2.3-0.5,3.4
	c0,0.5,0.1,0.9,0.5,1.3c0.3,0.3,0.8,0.5,1.2,0.5c0.9,0,1.7-0.3,2.4-0.8c0.8-0.5,1.5-1.1,2.1-1.8c0.8-0.8,1.4-1.6,2-2.6
	c0.1-0.2,0.2-0.3,0.3-0.4c0.1-0.1,0.2-0.2,0.4-0.3c0.2-0.1,0.3-0.2,0.5-0.2c0.3,0,0.6,0.1,0.9,0.4c0.2,0.2,0.4,0.5,0.4,0.8
	c0,0.2,0,0.3-0.1,0.4s-0.1,0.3-0.2,0.4C86.8,91.6,86.7,91.8,86.6,92z M72.6,81.4c0.1-0.7-0.2-1.4-0.6-2c-0.4-0.4-1-0.6-1.5-0.6
	c-1,0.1-2,0.6-2.7,1.4c-1,1-1.8,2.1-2.5,3.4c-0.8,1.4-1.4,2.9-1.8,4.4c-0.4,1.4-0.7,2.8-0.7,4.2c0,1.8,0.6,2.7,1.7,2.7
	c1-0.1,1.9-0.7,2.5-1.4c1-1.1,1.9-2.3,2.7-3.5c0.8-1.4,1.6-2.9,2.1-4.4C72.3,84.1,72.6,82.7,72.6,81.4z"/>
<path class="st1" d="M104.8,93.1c0,0.6,0.2,1.2,0.5,1.7c0.3,0.4,0.9,0.7,1.4,0.6c0.9,0,1.7-0.3,2.4-0.8c0.8-0.5,1.5-1.1,2.1-1.8
	c0.8-0.8,1.4-1.6,2-2.6c0.1-0.2,0.2-0.3,0.3-0.4c0.1-0.1,0.2-0.2,0.4-0.3c0.2-0.1,0.3-0.2,0.5-0.2c0.3,0,0.6,0.1,0.9,0.4
	c0.2,0.2,0.4,0.5,0.4,0.8c0,0.2,0,0.3-0.1,0.4s-0.1,0.3-0.2,0.4c-0.1,0.2-0.2,0.3-0.2,0.5c-0.8,1.3-1.8,2.6-2.9,3.7
	c-1,1-2.1,1.8-3.3,2.5c-1.2,0.8-2.7,1.1-4.1,1.1c-2,0.1-4-0.5-5.5-1.8c-1.3-1-2.1-2.6-2.1-4.3c0-1.2,0.2-2.4,0.5-3.6
	c0.3-1.1,0.7-2.3,1.1-3.3c0.4-1.1,0.7-2.1,1-3.1c0.3-0.9,0.5-1.9,0.5-2.8c0-0.3-0.1-0.5-0.4-0.7c-0.2-0.2-0.5-0.3-0.8-0.3
	c-1.1,0.1-2.2,0.5-3,1.3c-1.2,1-2.2,2.3-3,3.7c-1,1.8-1.8,3.8-2.3,5.9c-0.6,2.5-1,5.2-0.9,7.8c0,0.5-0.1,0.9-0.3,1
	c-0.3,0.2-0.7,0.2-1,0.2c-1.4,0-2.8-0.3-4-0.9c-0.9-0.4-1.6-1.3-1.6-2.4c0-1.8,0.2-3.6,0.6-5.3c0.4-1.9,0.8-3.7,1.3-5.4
	c0.5-1.7,1-3.4,1.6-4.8c0.5-1.5,1-2.6,1.3-3.5c0.2-0.7,0.9-1.2,1.7-1.1c0.6,0.1,1.2,0.2,1.7,0.5c1,0.7,1.9,1.6,2.5,2.7
	c0.9-0.7,1.8-1.4,2.8-1.9s2-1,3-1.3c1.2-0.4,2.4-0.6,3.6-0.6c0.7,0,1.3,0.2,1.9,0.5s1.2,0.7,1.7,1.2s0.9,1,1.1,1.7
	c0.3,0.6,0.4,1.2,0.4,1.8c0,1-0.2,2-0.5,2.9c-0.3,1-0.7,2.1-1.1,3.1c-0.4,1.1-0.8,2.2-1.1,3.3C105,90.8,104.8,92,104.8,93.1z"/>
<path class="st1" d="M122.2,95.3c0.9,0,1.7-0.3,2.4-0.8c0.8-0.5,1.5-1.1,2.1-1.8c0.8-0.8,1.4-1.6,2-2.6c0.1-0.2,0.2-0.3,0.3-0.4
	s0.2-0.2,0.4-0.3c0.2-0.1,0.3-0.2,0.5-0.2c0.3,0,0.6,0.1,0.9,0.4c0.2,0.2,0.4,0.5,0.4,0.8c0,0.2,0,0.3-0.1,0.4s-0.1,0.3-0.2,0.4
	c-0.1,0.2-0.2,0.3-0.2,0.5c-0.8,1.3-1.8,2.6-2.9,3.7c-1,1-2.1,1.8-3.3,2.5c-1.2,0.8-2.7,1.1-4.1,1.1c-1,0-2-0.2-2.9-0.5
	c-1-0.3-1.9-0.8-2.7-1.5c-0.8-0.6-1.5-1.4-2-2.3s-0.8-1.9-0.8-2.9s0.1-2.1,0.3-3.1c0.2-1.2,0.5-2.6,0.8-4c0.4-1.4,0.8-3,1.2-4.6
	c0.5-1.6,1-3.2,1.5-4.7H114c-0.3,0-0.5-0.2-0.5-0.5c0-0.5,0.2-0.9,0.5-1.3c0.2-0.5,0.7-0.8,1.2-0.8h1.2c0.6-1.6,1.2-3.1,1.8-4.5
	c0.5-1.2,1.1-2.4,1.7-3.5c0.2-0.3,0.4-0.6,0.7-0.8c0.3-0.2,0.6-0.3,1-0.3c0.5,0,1,0.2,1.5,0.4c0.5,0.3,1.1,0.6,1.5,1
	c0.4,0.3,0.8,0.7,1.2,1.2c0.3,0.3,0.4,0.6,0.5,1c-0.1,0.7-0.3,1.3-0.6,1.9c-0.4,1-0.9,2.2-1.4,3.7h4c0.3,0,0.5,0.2,0.5,0.5
	c0,0.2-0.1,0.4-0.2,0.6c-0.1,0.2-0.3,0.5-0.4,0.7c-0.2,0.2-0.4,0.4-0.6,0.6c-0.2,0.1-0.4,0.2-0.6,0.2h-3.7c-0.5,1.3-1,2.7-1.5,4.2
	s-0.9,2.9-1.3,4.4c-0.4,1.4-0.7,2.8-1,4.2c-0.2,1.2-0.4,2.4-0.4,3.6c0,0.8,0.3,1.7,0.9,2.3C120.6,95,121.4,95.4,122.2,95.3z"/>
<path class="st1" d="M156.4,92c-0.7,1-1.6,1.9-2.6,2.6s-2.1,1.4-3.3,1.8c-1.5,0.5-3,0.8-4.6,0.8c-0.8,0-1.6-0.1-2.3-0.2
	c-1,0.8-2,1.4-3.2,1.8s-2.4,0.6-3.7,0.6c-2.4,0-4.7-0.9-6.6-2.4c-0.8-0.8-1.5-1.7-2-2.7s-0.8-2.2-0.8-3.3c0-2.3,0.4-4.6,1.3-6.7
	c0.8-1.8,1.9-3.5,3.3-4.9c1.3-1.3,2.8-2.3,4.5-3c1.5-0.6,3.1-1,4.8-1c1.2,0,2.4,0.2,3.5,0.6c1,0.4,2,1,2.8,1.8s1.4,1.8,1.9,2.8
	c0.5,1.2,0.7,2.4,0.7,3.7c0,1.7-0.4,3.4-1,5c-0.7,1.8-1.6,3.4-2.7,4.9l0.4,0.1c0.2,0,0.3,0,0.5,0c1,0,1.9-0.2,2.8-0.6
	c0.8-0.4,1.5-0.9,2.2-1.4c0.7-0.6,1.4-1.3,2-2c0.1-0.2,0.2-0.3,0.3-0.4s0.2-0.2,0.4-0.3c0.2-0.1,0.3-0.2,0.5-0.2
	c0.3,0,0.6,0.1,0.9,0.4c0.2,0.2,0.4,0.5,0.4,0.8c0,0.2,0,0.3-0.1,0.4s-0.1,0.3-0.2,0.4S156.4,91.8,156.4,92z M134.5,92.4
	c0,1,0.2,2.1,0.8,2.9c0.5,0.7,1.3,1.2,2.1,1.1c0.7,0,1.3-0.3,1.9-0.7c-0.6-0.3-0.9-0.8-1-1.4c0-0.4,0.1-0.7,0.3-1
	c0.2-0.4,0.5-0.7,0.8-1s0.6-0.5,1-0.7c0.3-0.2,0.6-0.3,0.9-0.3c0.2,0,0.4,0,0.7,0.1c0.6-1.6,1.1-3.2,1.4-4.8c0.3-1.5,0.5-3,0.5-4.5
	c0.1-1-0.1-2-0.7-2.9c-0.4-0.6-1-0.9-1.7-0.9c-0.8,0.1-1.6,0.4-2.2,1c-0.9,0.8-1.7,1.8-2.3,2.9c-0.8,1.4-1.3,2.9-1.7,4.4
	C134.7,88.6,134.5,90.5,134.5,92.4z"/>
<path class="st1" d="M174.6,93.1c0,0.6,0.2,1.2,0.5,1.7c0.3,0.4,0.9,0.7,1.4,0.6c0.9,0,1.7-0.3,2.4-0.8c0.8-0.5,1.5-1.1,2.1-1.8
	c0.8-0.8,1.4-1.6,2-2.6c0.1-0.2,0.2-0.3,0.3-0.4s0.2-0.2,0.4-0.3c0.2-0.1,0.3-0.2,0.5-0.2c0.3,0,0.6,0.1,0.9,0.4
	c0.2,0.2,0.4,0.5,0.4,0.8c0,0.2,0,0.3-0.1,0.4s-0.1,0.3-0.2,0.4c-0.1,0.2-0.2,0.3-0.2,0.5c-0.8,1.3-1.8,2.6-2.9,3.7
	c-1,1-2.1,1.8-3.3,2.5c-1.2,0.8-2.7,1.1-4.1,1.1c-2,0.1-4-0.5-5.5-1.8c-1.3-1-2.1-2.6-2.1-4.3c0-1.2,0.2-2.4,0.5-3.6
	c0.3-1.1,0.7-2.3,1.1-3.3s0.7-2.1,1-3.1c0.3-0.9,0.5-1.9,0.5-2.8c0-0.3-0.1-0.5-0.4-0.7c-0.2-0.2-0.5-0.3-0.8-0.3
	c-1.1,0.1-2.2,0.5-3,1.3c-1.2,1-2.2,2.3-3,3.7c-1,1.8-1.8,3.8-2.3,5.9c-0.6,2.5-1,5.2-0.9,7.8c0,0.5-0.1,0.9-0.3,1
	c-0.3,0.2-0.7,0.2-1,0.2c-1.4,0-2.8-0.3-4-0.9c-0.9-0.4-1.6-1.3-1.6-2.4c0-1.8,0.2-3.6,0.6-5.3c0.4-1.9,0.8-3.7,1.4-5.4
	c0.5-1.7,1.1-3.3,1.6-4.8s1-2.6,1.4-3.5c0.2-0.7,0.9-1.2,1.6-1.1c0.6,0.1,1.2,0.2,1.7,0.5c1,0.7,1.9,1.6,2.5,2.7
	c0.9-0.7,1.8-1.4,2.8-1.9s2-1,3-1.3c1.2-0.4,2.4-0.6,3.6-0.6c0.7,0,1.3,0.2,1.9,0.5c0.6,0.3,1.2,0.7,1.6,1.2c0.5,0.5,0.9,1,1.1,1.7
	c0.3,0.6,0.4,1.2,0.4,1.8c0,1-0.2,2-0.5,2.9c-0.3,1-0.7,2.1-1.1,3.2s-0.7,2.2-1.1,3.3C174.8,90.9,174.6,92,174.6,93.1z"/>
<path class="st1" d="M188.9,99.4c-2,0.1-4-0.6-5.5-1.8c-1.4-1.2-2.2-2.9-2.1-4.8c0-1.3,0.2-2.6,0.5-3.9c0.4-1.5,0.8-3.1,1.3-4.6
	c0.5-1.6,1-3,1.5-4.4s1-2.5,1.4-3.4c0.2-0.3,0.4-0.6,0.7-0.8c0.3-0.2,0.6-0.3,1-0.3c0.5,0,1,0.2,1.5,0.4c0.5,0.3,1.1,0.6,1.6,1
	c0.4,0.3,0.8,0.7,1.2,1.1c0.3,0.2,0.4,0.6,0.5,0.9c0,1-0.2,2-0.5,3c-0.4,1.1-0.8,2.2-1.2,3.4s-0.8,2.5-1.2,3.8
	c-0.3,1.4-0.5,2.8-0.5,4.2c0,0.6,0.2,1.2,0.5,1.7c0.3,0.4,0.9,0.7,1.4,0.6c0.4,0,0.7-0.1,1-0.3c0.3-0.2,0.7-0.4,1-0.7
	c0.4-0.3,0.7-0.6,1-1c0.2-0.2,0.3-0.4,0.5-0.6s0.5-0.3,0.7-0.3c0.7,0.1,1.3,0.6,1.3,1.3c0,0.3-0.2,0.6-0.4,0.8
	c-0.1,0.2-0.2,0.3-0.3,0.5c-0.6,0.8-1.3,1.5-2.1,2.1c-0.7,0.6-1.4,1.1-2.2,1.5C190.7,99.2,189.8,99.4,188.9,99.4z M197.6,64.2
	c0,0.8-0.1,1.6-0.4,2.3c-0.2,0.7-0.6,1.4-1.1,2c-0.4,0.6-1,1-1.6,1.4c-0.6,0.3-1.2,0.5-1.8,0.5c-0.8,0-1.7-0.3-2.3-0.9
	c-0.7-0.7-1-1.6-1-2.5c0-0.8,0.1-1.5,0.4-2.2c0.3-0.7,0.6-1.4,1.1-2c0.4-0.6,1-1,1.6-1.4c0.6-0.3,1.2-0.5,1.9-0.5
	c0.8,0,1.6,0.3,2.2,0.9C197.3,62.5,197.6,63.3,197.6,64.2z"/>
</svg>
