<?xml version="1.0" encoding="utf-8"?>
<!-- Generator: Adobe Illustrator 24.0.2, SVG Export Plug-In . SVG Version: 6.00 Build 0)  -->
<svg version="1.1" id="Linkedin" xmlns="http://www.w3.org/2000/svg" xmlns:xlink="http://www.w3.org/1999/xlink" x="0px" y="0px"
	 viewBox="0 0 122 122" style="enable-background:new 0 0 122 122;" xml:space="preserve">
<style type="text/css">
	.st0{fill:#8B0130;}
	.st1{fill:#FFFFFF;}
</style>
<title>Artboard 12</title>
<g id="original">
	<path class="st0" d="M113,0H9C4.1,0,0.1,3.9,0,8.8v104.4c0.1,4.9,4.1,8.8,9,8.8h104c4.9,0,8.9-3.9,9-8.8V8.8
		C121.9,3.9,117.9,0,113,0z"/>
	<path class="st1" d="M18.1,45.7h18.1V104H18.1V45.7z M27.1,16.7c5.8,0,10.5,4.7,10.5,10.5c0,5.8-4.7,10.5-10.5,10.5
		S16.6,33,16.6,27.2c0,0,0,0,0,0C16.6,21.4,21.3,16.7,27.1,16.7"/>
	<path class="st1" d="M47.5,45.7h17.4v8h0.2c2.4-4.6,8.3-9.4,17.1-9.4c18.3,0,21.7,12,21.7,27.7v32H85.9V75.7
		c0-6.8-0.1-15.4-9.4-15.4s-10.9,7.4-10.9,15V104H47.5V45.7z"/>
</g>
</svg>
